<?xml version="1.0" encoding="UTF-8" standalone="no"?>
<!-- Created with Inkscape (http://www.inkscape.org/) -->

<svg
   width="210mm"
   height="297mm"
   viewBox="0 0 210 297"
   version="1.1"
   id="svg1"
   inkscape:version="1.3.2 (091e20e, 2023-11-25, custom)"
   sodipodi:docname="schema_cinématique.svg"
   xmlns:inkscape="http://www.inkscape.org/namespaces/inkscape"
   xmlns:sodipodi="http://sodipodi.sourceforge.net/DTD/sodipodi-0.dtd"
   xmlns="http://www.w3.org/2000/svg"
   xmlns:svg="http://www.w3.org/2000/svg">
  <sodipodi:namedview
     id="namedview1"
     pagecolor="#ffffff"
     bordercolor="#000000"
     borderopacity="0.25"
     inkscape:showpageshadow="2"
     inkscape:pageopacity="0.0"
     inkscape:pagecheckerboard="0"
     inkscape:deskcolor="#d1d1d1"
     inkscape:document-units="mm"
     inkscape:zoom="1.9578168"
     inkscape:cx="334.04556"
     inkscape:cy="779.18426"
     inkscape:window-width="1920"
     inkscape:window-height="991"
     inkscape:window-x="-9"
     inkscape:window-y="-9"
     inkscape:window-maximized="1"
     inkscape:current-layer="g72-4" />
  <defs
     id="defs1" />
  <ellipse
     style="fill:none;stroke:#000000;stroke-width:0.447074;stroke-opacity:1;stroke-dasharray:0.447074, 0.447074;stroke-dashoffset:0"
     id="path73-5"
     cx="119.33067"
     cy="146.4738"
     rx="79.987915"
     ry="110.9493" />
  <ellipse
     style="fill:none;stroke:#0000ff;stroke-width:0.2;stroke-dasharray:none;stroke-opacity:1"
     id="path76"
     cx="98.952209"
     cy="251.95229"
     rx="2.5640645"
     ry="6.0997782" />
  <g
     inkscape:label="Calque 1"
     inkscape:groupmode="layer"
     id="layer1" />
  <g
     credits="Auteur : Raphaël ALLAIS - Éduscol-STI"
     id="g72"
     transform="matrix(-0.03189741,0.03051965,0.036862,0.0391942,83.453562,238.132)"
     style="stroke-width:4.10373301;stroke-dasharray:none">
    <g
       id="g67"
       style="stroke-width:4.10373301;stroke-dasharray:none" />
    <path
       d="m -146.84876,-103.47566 61.974379,-49.49312"
       stroke="#0000ff"
       stroke-width="1"
       style="stroke-width:4.10373;stroke-linecap:round;stroke-dasharray:none"
       profondeur="-86.60254037844388"
       id="path67" />
    <path
       d="m -60.657482,-158.6857 0.873215,0.37359 1.660994,0.86853 1.586709,1.04495 1.506175,1.21745 1.419669,1.38488 1.327667,1.54705 1.230293,1.70307 1.12802,1.85224 1.021503,1.99429 0.910784,2.1284 0.796578,2.25406 0.6791,2.37086 0.559086,2.47838 0.436695,2.57589 0.312757,2.6635 0.187433,2.74046 0.06151,2.80669 -0.06478,2.86172 -0.190663,2.90549 -0.315953,2.93783 -0.439976,2.95859 -0.562142,2.96767 -0.682151,2.96503 -0.799493,2.95071 -0.913673,2.92464 -1.024332,2.88708 -1.130725,2.838233 -1.232868,2.778 -1.330035,2.707 -1.422025,2.62519 -1.508348,2.53303 -1.588726,2.43088 -1.662867,2.31919 -1.730395,2.19834 -1.791035,2.06869 -1.844848,1.93096 -1.891126,1.78565 -1.930068,1.633303 -1.961377,1.474384 -1.984882,1.309779 -2.000581,1.139994 -2.008458,0.965635 -2.008358,0.787489 -2.000263,0.606158 -1.984374,0.42269 -1.960652,0.237272 -1.92918,0.05103 -1.89002,-0.135311 -1.843491,-0.321321 -1.789692,-0.505963 -0.855453,-0.314837 155.666388,62.0029605 0.855572,0.314923 1.789593,0.505976 1.843471,0.321222 1.89004,0.135413 1.92918,-0.05103 1.960633,-0.237371 1.984393,-0.422591 2.000342,-0.606273 2.008359,-0.787489 2.008359,-0.965621 2.000698,-1.139909 1.984881,-1.309779 1.961379,-1.4743845 1.93007,-1.633303 1.89112,-1.78565 1.84473,-1.931043 1.79114,-2.068705 1.73041,-2.198244 1.66277,-2.31918 1.58873,-2.430872 1.508326,-2.533127 1.42204,-2.625094 1.33004,-2.706998 1.23285,-2.778102 1.13084,-2.838149 1.02421,-2.887167 0.91367,-2.92464 0.79952,-2.950609 0.68225,-2.965042 0.56214,-2.967666 0.43988,-2.958577 0.31595,-2.937836 0.19074,-2.905596 0.0648,-2.861725 -0.0615,-2.806585 -0.18753,-2.740451 -0.31266,-2.663511 -0.43681,-2.575979 -0.55897,-2.478288 -0.6792,-2.37085 -0.79648,-2.25408 -0.91078,-2.12839 -1.02151,-1.99429 -1.12813,-1.85233 -1.23028,-1.70297 -1.32757,-1.54706 -1.41968,-1.38498 -1.506256,-1.21734 -1.58671,-1.04495 -1.66099,-0.86853 -0.87323,-0.37368 z"
       stroke="#ff0000"
       stroke-width="1"
       style="fill:#ffffff;stroke-width:4.10373;stroke-dasharray:none"
       profondeur="-11.428149057870101"
       id="path68" />
    <path
       d="M -154.7782,-143.72301 156.55482,-19.716911"
       stroke="#0000ff"
       stroke-width="1"
       style="stroke-width:4.10373;stroke-linecap:round;stroke-dasharray:none"
       profondeur="0.0"
       id="path69" />
    <path
       d="M 73.678781,-15.638118 135.65309,-65.131127"
       stroke="#0000ff"
       stroke-width="1"
       style="stroke-width:4.10373;stroke-linecap:round;stroke-dasharray:none"
       profondeur="0.0"
       id="path70" />
    <path
       d="m -93.232303,-66.757183 -0.873235,-0.373685 -1.660992,-0.868528 -1.58671,-1.044953 -1.506253,-1.217341 -1.419687,-1.384973 -1.32757,-1.547067 -1.23027,-1.702968 -1.12814,-1.852328 -1.0215,-1.994291 -0.91079,-2.1284 -0.79648,-2.25407 -0.6792,-2.37085 -0.55896,-2.47829 v 0 l -0.43682,-2.57598 -0.31266,-2.66351 -0.18753,-2.74045 -0.0615,-2.80659 0.0648,-2.861723 0.19075,-2.9056 0.31595,-2.93783 0.43988,-2.95858 0.56214,-2.96767 0.68225,-2.96504 0.79951,-2.95061 0.91367,-2.92464 1.02422,-2.88716 1.13084,-2.83815 1.23285,-2.77811 1.33003,-2.70699 1.422046,-2.6251 1.508328,-2.53312 1.588727,-2.43088 1.662768,-2.31918 1.730414,-2.19824 1.791134,-2.06871 1.84473,-1.93104 1.891126,-1.78565 1.930068,-1.6333 1.961377,-1.47439 1.984882,-1.30977 2.000699,-1.13991 2.008359,-0.96562 2.008358,-0.78749 2.000342,-0.60628 1.984394,-0.42259 1.960632,-0.23737 1.92918,-0.051 1.89004,0.13541 1.843471,0.32122 1.789594,0.50598 0.855571,0.31492 155.666397,62.002973 -0.85546,-0.31484 -1.78969,-0.50596 -1.84349,-0.32132 -1.89002,-0.13532 -1.92918,0.051 -1.960653,0.23728 -1.984378,0.42269 -2.000263,0.60616 -2.008358,0.78749 -2.008458,0.96563 -2.000581,1.13999 -1.984881,1.30978 -1.961378,1.47439 -1.930067,1.6333 -1.891127,1.78565 -1.844847,1.93096 -1.791036,2.06869 -1.730395,2.19834 -1.662866,2.31919 -1.588727,2.430874 -1.508347,2.533028 -1.422025,2.625193 -1.330035,2.706998 -1.232869,2.778004 -1.130724,2.838234 -1.024333,2.887081 -0.913671,2.92464 -0.799493,2.950708 -0.682152,2.965029 -0.562141,2.967666 -0.439977,2.95859 -0.315952,2.937836 -0.190664,2.905484 -0.06478,2.861726 0.06151,2.806683 0.187433,2.740464 0.312757,2.663498 0.436695,2.575894 v 0 l 0.559086,2.478377 0.6791,2.370858 0.796577,2.254065 0.910785,2.128397 1.021503,1.99429 1.12802,1.852242 1.230292,1.703067 1.327668,1.5470545 1.419669,1.384874 1.506174,1.217453 1.586709,1.044953 1.660993,0.868528 0.873215,0.373586 z"
       stroke="#ff0000"
       stroke-width="1"
       style="fill:#ffffff;stroke-width:4.10373;stroke-dasharray:none"
       profondeur="11.428149057870122"
       id="path71" />
    <path
       d="M -86.862186,-25.305978 -20.07317,-86.306784"
       stroke="#ff0000"
       stroke-width="1"
       style="stroke-width:4.10373;stroke-linecap:round;stroke-dasharray:none"
       profondeur="577350269189.6259"
       id="path72" />
    <g
       credits="Auteur : Raphaël ALLAIS - Éduscol-STI"
       id="g50-8"
       transform="matrix(0.10728477,0.64299374,0.75147399,-0.2621197,-1210.2887,-204.81867)"
       style="stroke-width:5.73898425;stroke-dasharray:none">
      <g
         id="g45-4"
         style="stroke-width:5.73898425;stroke-dasharray:none" />
      <path
         d="m -141.4214,-40.8248 70.7107,-40.8249"
         stroke="#ed333b"
         stroke-width="1"
         style="stroke-linecap:round;stroke-width:5.73898425;stroke-dasharray:none"
         profondeur="-86.60254037844388"
         id="path45-5" />
      <path
         d="m -45.726,-84.1349 0.7883,0.4835 1.4688,1.0758 1.3613,1.2405 1.2484,1.4005 1.1306,1.5547 1.0084,1.703 0.8821,1.8445 0.7523,1.9786 0.6197,2.1051 0.4845,2.2232 0.3475,2.3325 0.209,2.4326 0.0698,2.5232 -0.0698,2.6036 -0.209,2.674 -0.3475,2.7337 -0.4845,2.7827 -0.6197,2.8206 -0.7523,2.8474 -0.8821,2.863 -1.0084,2.8673 -1.1306,2.8603 -1.2484,2.842 -1.3613,2.8125 -1.4688,2.7718 -1.5706,2.7202 -1.666,2.658 -1.755,2.5851 -1.837,2.5022 -1.9118,2.4093 -1.979,2.3069 -2.0384,2.1954 -2.0898,2.0753 -2.1329,1.947 -2.1675,1.8109 -2.1938,1.6677 -2.2112,1.518 -2.22,1.3623 -2.22,1.2011 -2.2112,1.0353 -2.1937,0.8654 -2.1676,0.692 -2.1329,0.5159 -2.0897,0.3377 -2.0384,0.1584 -1.979,-0.0218 -1.9118,-0.2018 -1.837,-0.3809 -1.755,-0.5587 -1.6661,-0.7342 -0.7822,-0.4231 141.4213,81.6496 0.7823,0.4232 1.666,0.7342 1.755,0.5586 1.837,0.381 1.9118,0.2018 1.979,0.0217 2.0384,-0.1583 2.0898,-0.3378 2.1329,-0.5159 2.1675,-0.692 2.1938,-0.8653 2.2112,-1.0353 2.22,-1.2011 2.22,-1.3623 2.2112,-1.518 2.1937,-1.6678 2.1676,-1.8109 2.1329,-1.9469 2.0897,-2.0753 2.0384,-2.1954 1.979,-2.307 1.9118,-2.4092 1.837,-2.5022 1.755,-2.5852 1.6661,-2.6579 1.5705,-2.7203 1.4688,-2.7718 1.3613,-2.8124 1.2485,-2.842 1.1306,-2.8603 1.0083,-2.8673 0.8821,-2.863 0.7524,-2.8475 0.6197,-2.8206 0.4845,-2.7826 0.3474,-2.7337 0.2091,-2.674 0.0697,-2.6037 -0.0697,-2.5231 -0.2091,-2.4326 -0.3474,-2.3325 -0.4845,-2.2232 -0.6197,-2.1051 -0.7524,-1.9787 -0.8821,-1.8444 -1.0083,-1.703 -1.1306,-1.5548 -1.2485,-1.4004 -1.3613,-1.2405 -1.4688,-1.0758 -0.7883,-0.4836 z"
         stroke="#3584e4"
         stroke-width="1"
         style="fill:#ffffff;stroke-width:5.73898425;stroke-dasharray:none"
         profondeur="-11.428149057870101"
         id="path46-3" />
      <path
         d="M -141.4214,-81.6497 141.4214,81.6497"
         stroke="#ed333b"
         stroke-width="1"
         style="stroke-linecap:round;stroke-width:5.73898425;stroke-dasharray:none"
         profondeur="0.0"
         id="path47-4" />
      <path
         d="M 58.9256,74.8455 129.6362,34.0207"
         stroke="#ed333b"
         stroke-width="1"
         style="stroke-linecap:round;stroke-width:5.73898425;stroke-dasharray:none"
         profondeur="0.0"
         id="path48-7" />
      <path
         d="m -95.6953,2.4853 -0.7883,-0.4836 -1.4688,-1.0758 -1.3613,-1.2405 -1.2485,-1.4004 -1.1306,-1.5548 -1.0083,-1.703 -0.8821,-1.8444 -0.7524,-1.9787 -0.6197,-2.1051 -0.4845,-2.2232 -0.3474,-2.3325 -0.2091,-2.4326 -0.0697,-2.5231 v 0 l 0.0697,-2.6037 0.2091,-2.674 0.3474,-2.7337 0.4845,-2.7826 0.6197,-2.8206 0.7524,-2.8475 0.8821,-2.863 1.0083,-2.8673 1.1306,-2.8603 1.2485,-2.842 1.3613,-2.8124 1.4688,-2.7718 1.5705,-2.7203 1.6661,-2.6579 1.755,-2.5852 1.837,-2.5022 1.9118,-2.4092 1.979,-2.307 2.0384,-2.1954 2.0897,-2.0753 2.1329,-1.9469 2.1676,-1.8109 2.1937,-1.6678 2.2112,-1.518 2.22,-1.3623 2.22,-1.2011 2.2112,-1.0353 2.1938,-0.8653 2.1675,-0.692 2.1329,-0.5159 2.0898,-0.3378 2.0384,-0.1583 1.979,0.0217 1.9118,0.2018 1.837,0.381 1.755,0.5586 1.666,0.7342 0.7823,0.4232 141.4213,81.6496 -0.7822,-0.4231 -1.6661,-0.7342 -1.755,-0.5587 -1.837,-0.3809 -1.9118,-0.2018 -1.979,-0.0218 -2.0384,0.1584 -2.0897,0.3377 -2.1329,0.5159 -2.1676,0.692 -2.1937,0.8654 -2.2112,1.0353 -2.22,1.2011 -2.22,1.3623 -2.2112,1.518 -2.1938,1.6677 -2.1675,1.8109 -2.1329,1.947 -2.0898,2.0753 -2.0384,2.1954 -1.979,2.3069 -1.9118,2.4093 -1.837,2.5022 -1.755,2.5851 -1.666,2.658 -1.5706,2.7202 -1.4688,2.7718 -1.3613,2.8125 -1.2484,2.842 -1.1306,2.8603 -1.0084,2.8673 -0.8821,2.863 -0.7523,2.8474 -0.6197,2.8206 -0.4845,2.7827 -0.3475,2.7337 -0.209,2.674 -0.0698,2.6036 v 0 l 0.0698,2.5232 0.209,2.4326 0.3475,2.3325 0.4845,2.2232 0.6197,2.1051 0.7523,1.9786 0.8821,1.8445 1.0084,1.703 1.1306,1.5547 1.2484,1.4005 1.3613,1.2405 1.4688,1.0758 0.7883,0.4835 z"
         stroke="#3584e4"
         stroke-width="1"
         style="fill:#ffffff;stroke-width:5.73898425;stroke-dasharray:none"
         profondeur="11.428149057870122"
         id="path49-0" />
    </g>
    <g
       credits="Auteur : Raphaël ALLAIS - Éduscol-STI"
       id="g50-84"
       transform="matrix(0.10728479,0.64299377,0.75147396,-0.2621197,-573.49218,-703.44129)"
       style="stroke-width:5.73898421;stroke-dasharray:none">
      <g
         id="g45-8"
         style="stroke-width:5.73898421;stroke-dasharray:none" />
      <path
         d="m -141.4214,-40.8248 70.7107,-40.8249"
         stroke="#ed333b"
         stroke-width="1"
         style="stroke-linecap:round;stroke-width:5.73898421;stroke-dasharray:none"
         profondeur="-86.60254037844388"
         id="path45-2" />
      <path
         d="m -45.726,-84.1349 0.7883,0.4835 1.4688,1.0758 1.3613,1.2405 1.2484,1.4005 1.1306,1.5547 1.0084,1.703 0.8821,1.8445 0.7523,1.9786 0.6197,2.1051 0.4845,2.2232 0.3475,2.3325 0.209,2.4326 0.0698,2.5232 -0.0698,2.6036 -0.209,2.674 -0.3475,2.7337 -0.4845,2.7827 -0.6197,2.8206 -0.7523,2.8474 -0.8821,2.863 -1.0084,2.8673 -1.1306,2.8603 -1.2484,2.842 -1.3613,2.8125 -1.4688,2.7718 -1.5706,2.7202 -1.666,2.658 -1.755,2.5851 -1.837,2.5022 -1.9118,2.4093 -1.979,2.3069 -2.0384,2.1954 -2.0898,2.0753 -2.1329,1.947 -2.1675,1.8109 -2.1938,1.6677 -2.2112,1.518 -2.22,1.3623 -2.22,1.2011 -2.2112,1.0353 -2.1937,0.8654 -2.1676,0.692 -2.1329,0.5159 -2.0897,0.3377 -2.0384,0.1584 -1.979,-0.0218 -1.9118,-0.2018 -1.837,-0.3809 -1.755,-0.5587 -1.6661,-0.7342 -0.7822,-0.4231 141.4213,81.6496 0.7823,0.4232 1.666,0.7342 1.755,0.5586 1.837,0.381 1.9118,0.2018 1.979,0.0217 2.0384,-0.1583 2.0898,-0.3378 2.1329,-0.5159 2.1675,-0.692 2.1938,-0.8653 2.2112,-1.0353 2.22,-1.2011 2.22,-1.3623 2.2112,-1.518 2.1937,-1.6678 2.1676,-1.8109 2.1329,-1.9469 2.0897,-2.0753 2.0384,-2.1954 1.979,-2.307 1.9118,-2.4092 1.837,-2.5022 1.755,-2.5852 1.6661,-2.6579 1.5705,-2.7203 1.4688,-2.7718 1.3613,-2.8124 1.2485,-2.842 1.1306,-2.8603 1.0083,-2.8673 0.8821,-2.863 0.7524,-2.8475 0.6197,-2.8206 0.4845,-2.7826 0.3474,-2.7337 0.2091,-2.674 0.0697,-2.6037 -0.0697,-2.5231 -0.2091,-2.4326 -0.3474,-2.3325 -0.4845,-2.2232 -0.6197,-2.1051 -0.7524,-1.9787 -0.8821,-1.8444 -1.0083,-1.703 -1.1306,-1.5548 -1.2485,-1.4004 -1.3613,-1.2405 -1.4688,-1.0758 -0.7883,-0.4836 z"
         stroke="#3584e4"
         stroke-width="1"
         style="fill:#ffffff;stroke-width:5.73898421;stroke-dasharray:none"
         profondeur="-11.428149057870101"
         id="path46-9" />
      <path
         d="M -141.4214,-81.6497 141.4214,81.6497"
         stroke="#ed333b"
         stroke-width="1"
         style="stroke-linecap:round;stroke-width:5.73898421;stroke-dasharray:none"
         profondeur="0.0"
         id="path47-1" />
      <path
         d="M 58.9256,74.8455 129.6362,34.0207"
         stroke="#ed333b"
         stroke-width="1"
         style="stroke-linecap:round;stroke-width:5.73898421;stroke-dasharray:none"
         profondeur="0.0"
         id="path48-0" />
      <path
         d="m -95.6953,2.4853 -0.7883,-0.4836 -1.4688,-1.0758 -1.3613,-1.2405 -1.2485,-1.4004 -1.1306,-1.5548 -1.0083,-1.703 -0.8821,-1.8444 -0.7524,-1.9787 -0.6197,-2.1051 -0.4845,-2.2232 -0.3474,-2.3325 -0.2091,-2.4326 -0.0697,-2.5231 v 0 l 0.0697,-2.6037 0.2091,-2.674 0.3474,-2.7337 0.4845,-2.7826 0.6197,-2.8206 0.7524,-2.8475 0.8821,-2.863 1.0083,-2.8673 1.1306,-2.8603 1.2485,-2.842 1.3613,-2.8124 1.4688,-2.7718 1.5705,-2.7203 1.6661,-2.6579 1.755,-2.5852 1.837,-2.5022 1.9118,-2.4092 1.979,-2.307 2.0384,-2.1954 2.0897,-2.0753 2.1329,-1.9469 2.1676,-1.8109 2.1937,-1.6678 2.2112,-1.518 2.22,-1.3623 2.22,-1.2011 2.2112,-1.0353 2.1938,-0.8653 2.1675,-0.692 2.1329,-0.5159 2.0898,-0.3378 2.0384,-0.1583 1.979,0.0217 1.9118,0.2018 1.837,0.381 1.755,0.5586 1.666,0.7342 0.7823,0.4232 141.4213,81.6496 -0.7822,-0.4231 -1.6661,-0.7342 -1.755,-0.5587 -1.837,-0.3809 -1.9118,-0.2018 -1.979,-0.0218 -2.0384,0.1584 -2.0897,0.3377 -2.1329,0.5159 -2.1676,0.692 -2.1937,0.8654 -2.2112,1.0353 -2.22,1.2011 -2.22,1.3623 -2.2112,1.518 -2.1938,1.6677 -2.1675,1.8109 -2.1329,1.947 -2.0898,2.0753 -2.0384,2.1954 -1.979,2.3069 -1.9118,2.4093 -1.837,2.5022 -1.755,2.5851 -1.666,2.658 -1.5706,2.7202 -1.4688,2.7718 -1.3613,2.8125 -1.2484,2.842 -1.1306,2.8603 -1.0084,2.8673 -0.8821,2.863 -0.7523,2.8474 -0.6197,2.8206 -0.4845,2.7827 -0.3475,2.7337 -0.209,2.674 -0.0698,2.6036 v 0 l 0.0698,2.5232 0.209,2.4326 0.3475,2.3325 0.4845,2.2232 0.6197,2.1051 0.7523,1.9786 0.8821,1.8445 1.0084,1.703 1.1306,1.5547 1.2484,1.4005 1.3613,1.2405 1.4688,1.0758 0.7883,0.4835 z"
         stroke="#3584e4"
         stroke-width="1"
         style="fill:#ffffff;stroke-width:5.73898421;stroke-dasharray:none"
         profondeur="11.428149057870122"
         id="path49-4" />
    </g>
    <g
       credits="Auteur : Raphaël ALLAIS - Éduscol-STI"
       id="g50-9"
       transform="matrix(0.10728479,0.64299377,0.75147396,-0.2621197,-233.91647,-1005.4558)"
       style="stroke-width:5.73898421;stroke-dasharray:none">
      <g
         id="g45-6"
         style="stroke-width:5.73898421;stroke-dasharray:none" />
      <path
         d="m -141.4214,-40.8248 70.7107,-40.8249"
         stroke="#ed333b"
         stroke-width="1"
         style="stroke-linecap:round;stroke-width:5.73898421;stroke-dasharray:none"
         profondeur="-86.60254037844388"
         id="path45-3" />
      <path
         d="m -45.726,-84.1349 0.7883,0.4835 1.4688,1.0758 1.3613,1.2405 1.2484,1.4005 1.1306,1.5547 1.0084,1.703 0.8821,1.8445 0.7523,1.9786 0.6197,2.1051 0.4845,2.2232 0.3475,2.3325 0.209,2.4326 0.0698,2.5232 -0.0698,2.6036 -0.209,2.674 -0.3475,2.7337 -0.4845,2.7827 -0.6197,2.8206 -0.7523,2.8474 -0.8821,2.863 -1.0084,2.8673 -1.1306,2.8603 -1.2484,2.842 -1.3613,2.8125 -1.4688,2.7718 -1.5706,2.7202 -1.666,2.658 -1.755,2.5851 -1.837,2.5022 -1.9118,2.4093 -1.979,2.3069 -2.0384,2.1954 -2.0898,2.0753 -2.1329,1.947 -2.1675,1.8109 -2.1938,1.6677 -2.2112,1.518 -2.22,1.3623 -2.22,1.2011 -2.2112,1.0353 -2.1937,0.8654 -2.1676,0.692 -2.1329,0.5159 -2.0897,0.3377 -2.0384,0.1584 -1.979,-0.0218 -1.9118,-0.2018 -1.837,-0.3809 -1.755,-0.5587 -1.6661,-0.7342 -0.7822,-0.4231 141.4213,81.6496 0.7823,0.4232 1.666,0.7342 1.755,0.5586 1.837,0.381 1.9118,0.2018 1.979,0.0217 2.0384,-0.1583 2.0898,-0.3378 2.1329,-0.5159 2.1675,-0.692 2.1938,-0.8653 2.2112,-1.0353 2.22,-1.2011 2.22,-1.3623 2.2112,-1.518 2.1937,-1.6678 2.1676,-1.8109 2.1329,-1.9469 2.0897,-2.0753 2.0384,-2.1954 1.979,-2.307 1.9118,-2.4092 1.837,-2.5022 1.755,-2.5852 1.6661,-2.6579 1.5705,-2.7203 1.4688,-2.7718 1.3613,-2.8124 1.2485,-2.842 1.1306,-2.8603 1.0083,-2.8673 0.8821,-2.863 0.7524,-2.8475 0.6197,-2.8206 0.4845,-2.7826 0.3474,-2.7337 0.2091,-2.674 0.0697,-2.6037 -0.0697,-2.5231 -0.2091,-2.4326 -0.3474,-2.3325 -0.4845,-2.2232 -0.6197,-2.1051 -0.7524,-1.9787 -0.8821,-1.8444 -1.0083,-1.703 -1.1306,-1.5548 -1.2485,-1.4004 -1.3613,-1.2405 -1.4688,-1.0758 -0.7883,-0.4836 z"
         stroke="#3584e4"
         stroke-width="1"
         style="fill:#ffffff;stroke-width:5.73898421;stroke-dasharray:none"
         profondeur="-11.428149057870101"
         id="path46-93" />
      <path
         d="M -141.4214,-81.6497 141.4214,81.6497"
         stroke="#ed333b"
         stroke-width="1"
         style="stroke-linecap:round;stroke-width:5.73898421;stroke-dasharray:none"
         profondeur="0.0"
         id="path47-2" />
      <path
         d="M 58.9256,74.8455 129.6362,34.0207"
         stroke="#ed333b"
         stroke-width="1"
         style="stroke-linecap:round;stroke-width:5.73898421;stroke-dasharray:none"
         profondeur="0.0"
         id="path48-4" />
      <path
         d="m -95.6953,2.4853 -0.7883,-0.4836 -1.4688,-1.0758 -1.3613,-1.2405 -1.2485,-1.4004 -1.1306,-1.5548 -1.0083,-1.703 -0.8821,-1.8444 -0.7524,-1.9787 -0.6197,-2.1051 -0.4845,-2.2232 -0.3474,-2.3325 -0.2091,-2.4326 -0.0697,-2.5231 v 0 l 0.0697,-2.6037 0.2091,-2.674 0.3474,-2.7337 0.4845,-2.7826 0.6197,-2.8206 0.7524,-2.8475 0.8821,-2.863 1.0083,-2.8673 1.1306,-2.8603 1.2485,-2.842 1.3613,-2.8124 1.4688,-2.7718 1.5705,-2.7203 1.6661,-2.6579 1.755,-2.5852 1.837,-2.5022 1.9118,-2.4092 1.979,-2.307 2.0384,-2.1954 2.0897,-2.0753 2.1329,-1.9469 2.1676,-1.8109 2.1937,-1.6678 2.2112,-1.518 2.22,-1.3623 2.22,-1.2011 2.2112,-1.0353 2.1938,-0.8653 2.1675,-0.692 2.1329,-0.5159 2.0898,-0.3378 2.0384,-0.1583 1.979,0.0217 1.9118,0.2018 1.837,0.381 1.755,0.5586 1.666,0.7342 0.7823,0.4232 141.4213,81.6496 -0.7822,-0.4231 -1.6661,-0.7342 -1.755,-0.5587 -1.837,-0.3809 -1.9118,-0.2018 -1.979,-0.0218 -2.0384,0.1584 -2.0897,0.3377 -2.1329,0.5159 -2.1676,0.692 -2.1937,0.8654 -2.2112,1.0353 -2.22,1.2011 -2.22,1.3623 -2.2112,1.518 -2.1938,1.6677 -2.1675,1.8109 -2.1329,1.947 -2.0898,2.0753 -2.0384,2.1954 -1.979,2.3069 -1.9118,2.4093 -1.837,2.5022 -1.755,2.5851 -1.666,2.658 -1.5706,2.7202 -1.4688,2.7718 -1.3613,2.8125 -1.2484,2.842 -1.1306,2.8603 -1.0084,2.8673 -0.8821,2.863 -0.7523,2.8474 -0.6197,2.8206 -0.4845,2.7827 -0.3475,2.7337 -0.209,2.674 -0.0698,2.6036 v 0 l 0.0698,2.5232 0.209,2.4326 0.3475,2.3325 0.4845,2.2232 0.6197,2.1051 0.7523,1.9786 0.8821,1.8445 1.0084,1.703 1.1306,1.5547 1.2484,1.4005 1.3613,1.2405 1.4688,1.0758 0.7883,0.4835 z"
         stroke="#3584e4"
         stroke-width="1"
         style="fill:#ffffff;stroke-width:5.73898421;stroke-dasharray:none"
         profondeur="11.428149057870122"
         id="path49-3" />
    </g>
    <ellipse
       style="fill:none;stroke:#0000ff;stroke-width:4.51645844;stroke-dasharray:4.51645844, 9.03293535;stroke-dashoffset:0;stroke-opacity:1"
       id="path50"
       cx="901.50928"
       cy="-964.26465"
       transform="matrix(-0.78900799,0.61438293,0.75619302,0.65434862,0,0)"
       rx="207.15175"
       ry="17.862154" />
  </g>
  <g
     credits="Auteur : Raphaël ALLAIS - Éduscol-STI"
     id="g72-6"
     transform="matrix(-0.03935237,0.02624096,0.02941196,0.04435247,57.593069,240.54336)"
     style="stroke-width:3.29333;stroke-dasharray:none"
     inkscape:transform-center-x="1.1268897"
     inkscape:transform-center-y="-1.2776304">
    <g
       id="g67-5"
       style="stroke-width:3.29333;stroke-dasharray:none" />
    <path
       d="m -141.4214,-40.8248 70.7107,-40.8249"
       stroke="#0000ff"
       stroke-width="1"
       style="stroke-width:3.29333;stroke-linecap:round;stroke-dasharray:none"
       profondeur="-86.60254037844388"
       id="path67-7" />
    <path
       d="m -45.726,-84.1349 0.7883,0.4835 1.4688,1.0758 1.3613,1.2405 1.2484,1.4005 1.1306,1.5547 1.0084,1.703 0.8821,1.8445 0.7523,1.9786 0.6197,2.1051 0.4845,2.2232 0.3475,2.3325 0.209,2.4326 0.0698,2.5232 -0.0698,2.6036 -0.209,2.674 -0.3475,2.7337 -0.4845,2.7827 -0.6197,2.8206 -0.7523,2.8474 -0.8821,2.863 -1.0084,2.8673 -1.1306,2.8603 -1.2484,2.842 -1.3613,2.8125 -1.4688,2.7718 -1.5706,2.7202 -1.666,2.658 -1.755,2.5851 -1.837,2.5022 -1.9118,2.4093 -1.979,2.3069 -2.0384,2.1954 -2.0898,2.0753 -2.1329,1.947 -2.1675,1.8109 -2.1938,1.6677 -2.2112,1.518 -2.22,1.3623 -2.22,1.2011 -2.2112,1.0353 -2.1937,0.8654 -2.1676,0.692 -2.1329,0.5159 -2.0897,0.3377 -2.0384,0.1584 -1.979,-0.0218 -1.9118,-0.2018 -1.837,-0.3809 -1.755,-0.5587 -1.6661,-0.7342 -0.7822,-0.4231 141.4213,81.6496 0.7823,0.4232 1.666,0.7342 1.755,0.5586 1.837,0.381 1.9118,0.2018 1.979,0.0217 2.0384,-0.1583 2.0898,-0.3378 2.1329,-0.5159 2.1675,-0.692 2.1938,-0.8653 2.2112,-1.0353 2.22,-1.2011 2.22,-1.3623 2.2112,-1.518 2.1937,-1.6678 2.1676,-1.8109 2.1329,-1.9469 2.0897,-2.0753 2.0384,-2.1954 1.979,-2.307 1.9118,-2.4092 1.837,-2.5022 1.755,-2.5852 1.6661,-2.6579 1.5705,-2.7203 1.4688,-2.7718 1.3613,-2.8124 1.2485,-2.842 1.1306,-2.8603 1.0083,-2.8673 0.8821,-2.863 0.7524,-2.8475 0.6197,-2.8206 0.4845,-2.7826 0.3474,-2.7337 0.2091,-2.674 0.0697,-2.6037 -0.0697,-2.5231 -0.2091,-2.4326 -0.3474,-2.3325 -0.4845,-2.2232 -0.6197,-2.1051 -0.7524,-1.9787 -0.8821,-1.8444 -1.0083,-1.703 -1.1306,-1.5548 -1.2485,-1.4004 -1.3613,-1.2405 -1.4688,-1.0758 -0.7883,-0.4836 z"
       stroke="#ff0000"
       stroke-width="1"
       style="fill:#ffffff;stroke-width:3.29333;stroke-dasharray:none"
       profondeur="-11.428149057870101"
       id="path68-7" />
    <path
       d="M -141.4214,-81.6497 141.4214,81.6497"
       stroke="#0000ff"
       stroke-width="1"
       style="stroke-width:3.29333;stroke-linecap:round;stroke-dasharray:none"
       profondeur="0.0"
       id="path69-2" />
    <path
       d="M 58.9256,74.8455 129.6362,34.0207"
       stroke="#0000ff"
       stroke-width="1"
       style="stroke-width:3.29333;stroke-linecap:round;stroke-dasharray:none"
       profondeur="0.0"
       id="path70-9" />
    <path
       d="m -95.6953,2.4853 -0.7883,-0.4836 -1.4688,-1.0758 -1.3613,-1.2405 -1.2485,-1.4004 -1.1306,-1.5548 -1.0083,-1.703 -0.8821,-1.8444 -0.7524,-1.9787 -0.6197,-2.1051 -0.4845,-2.2232 -0.3474,-2.3325 -0.2091,-2.4326 -0.0697,-2.5231 v 0 l 0.0697,-2.6037 0.2091,-2.674 0.3474,-2.7337 0.4845,-2.7826 0.6197,-2.8206 0.7524,-2.8475 0.8821,-2.863 1.0083,-2.8673 1.1306,-2.8603 1.2485,-2.842 1.3613,-2.8124 1.4688,-2.7718 1.5705,-2.7203 1.6661,-2.6579 1.755,-2.5852 1.837,-2.5022 1.9118,-2.4092 1.979,-2.307 2.0384,-2.1954 2.0897,-2.0753 2.1329,-1.9469 2.1676,-1.8109 2.1937,-1.6678 2.2112,-1.518 2.22,-1.3623 2.22,-1.2011 2.2112,-1.0353 2.1938,-0.8653 2.1675,-0.692 2.1329,-0.5159 2.0898,-0.3378 2.0384,-0.1583 1.979,0.0217 1.9118,0.2018 1.837,0.381 1.755,0.5586 1.666,0.7342 0.7823,0.4232 141.4213,81.6496 -0.7822,-0.4231 -1.6661,-0.7342 -1.755,-0.5587 -1.837,-0.3809 -1.9118,-0.2018 -1.979,-0.0218 -2.0384,0.1584 -2.0897,0.3377 -2.1329,0.5159 -2.1676,0.692 -2.1937,0.8654 -2.2112,1.0353 -2.22,1.2011 -2.22,1.3623 -2.2112,1.518 -2.1938,1.6677 -2.1675,1.8109 -2.1329,1.947 -2.0898,2.0753 -2.0384,2.1954 -1.979,2.3069 -1.9118,2.4093 -1.837,2.5022 -1.755,2.5851 -1.666,2.658 -1.5706,2.7202 -1.4688,2.7718 -1.3613,2.8125 -1.2484,2.842 -1.1306,2.8603 -1.0084,2.8673 -0.8821,2.863 -0.7523,2.8474 -0.6197,2.8206 -0.4845,2.7827 -0.3475,2.7337 -0.209,2.674 -0.0698,2.6036 v 0 l 0.0698,2.5232 0.209,2.4326 0.3475,2.3325 0.4845,2.2232 0.6197,2.1051 0.7523,1.9786 0.8821,1.8445 1.0084,1.703 1.1306,1.5547 1.2484,1.4005 1.3613,1.2405 1.4688,1.0758 0.7883,0.4835 z"
       stroke="#ff0000"
       stroke-width="1"
       style="fill:#ffffff;stroke-width:3.29333;stroke-dasharray:none"
       profondeur="11.428149057870122"
       id="path71-6" />
    <path
       d="m 0,-40.8248 v -81.6497"
       stroke="#ff0000"
       stroke-width="1"
       style="stroke-width:3.29333;stroke-linecap:round;stroke-dasharray:none"
       profondeur="577350269189.6259"
       id="path72-3" />
  </g>
  <g
     credits="Auteur : Raphaël ALLAIS - Éduscol-STI"
     id="g72-4"
     transform="matrix(-0.04489514,-0.02066318,-0.02213399,0.04812598,91.429534,246.31311)"
     style="stroke-width:3.90883;stroke-dasharray:none;fill:none">
    <g
       id="g67-2"
       style="stroke-width:3.90883;stroke-dasharray:none;fill:none" />
    <path
       d="m -174.17753,78.47117 70.7107,-40.8249"
       stroke="#0000ff"
       stroke-width="1"
       style="stroke-width:3.90883;stroke-linecap:round;stroke-dasharray:none;fill:none"
       profondeur="-86.60254037844388"
       id="path67-4" />
    <path
       d="m -78.482128,35.16107 0.7883,0.4835 1.4688,1.0758 1.3613,1.2405 1.2484,1.4005 1.1306,1.5547 1.0084,1.703 0.8821,1.8445 0.7523,1.9786 0.6197,2.1051 0.4845,2.2232 0.3475,2.3325 0.209,2.4326 0.0698,2.5232 -0.0698,2.6036 -0.209,2.674 -0.3475,2.7337 -0.4845,2.7827 -0.6197,2.8206 -0.7523,2.8474 -0.8821,2.863 -1.0084,2.8673 -1.1306,2.8603 -1.2484,2.842 -1.3613,2.8125 -1.4688,2.7718 -1.5706,2.7202 -1.666,2.658 -1.755,2.5851 -1.837,2.5022 -1.9118,2.4093 -1.979,2.3069 -2.0384,2.1954 -2.0898,2.0753 -2.1329,1.947 -2.1675,1.8109 -2.1938,1.6677 -2.211202,1.518 -2.22,1.3623 -2.22,1.2011 -2.2112,1.0353 -2.1937,0.8654 -2.1676,0.692 -2.13289,0.5159 -2.0897,0.3377 -2.0384,0.1584 -1.979,-0.0218 -1.9118,-0.2018 -1.837,-0.3809 -1.755,-0.5587 -1.6661,-0.7342 -0.7822,-0.4231 141.421292,81.6496 0.7823,0.4232 1.666,0.7342 1.755,0.5586 1.837,0.381 1.9118,0.2018 1.979,0.0217 2.0384,-0.1583 2.0898,-0.3378 2.1329,-0.5159 2.1675,-0.692 2.1938,-0.8653 2.2112,-1.0353 2.22,-1.2011 2.22,-1.3623 2.2112,-1.518 2.1937,-1.6678 2.1676,-1.8109 2.1329,-1.9469 2.0897,-2.0753 2.0384,-2.1954 1.979,-2.307 1.9118,-2.4092 1.837,-2.5022 1.755,-2.5852 1.6661,-2.6579 1.5705,-2.7203 1.468798,-2.7718 1.3613,-2.8124 1.2485,-2.842 1.1306,-2.8603 1.0083,-2.8673 0.8821,-2.863 0.7524,-2.8475 0.6197,-2.8206 0.4845,-2.7826 0.3474,-2.7337 0.2091,-2.674 0.0697,-2.6037 -0.0697,-2.5231 -0.2091,-2.4326 -0.3474,-2.3325 -0.4845,-2.2232 -0.6197,-2.1051 -0.7524,-1.9787 -0.8821,-1.8444 -1.0083,-1.703 -1.1306,-1.5548 -1.2485,-1.4004 -1.3613,-1.2405 -1.468798,-1.0758 -0.7883,-0.4836 z"
       stroke="#ff0000"
       stroke-width="1"
       style="fill:none;stroke-width:3.90883;stroke-dasharray:none"
       profondeur="-11.428149057870101"
       id="path68-9" />
    <path
       d="m -174.17753,37.64627 282.8428,163.2994"
       stroke="#0000ff"
       stroke-width="1"
       style="stroke-width:3.90883;stroke-linecap:round;stroke-dasharray:none;fill:none"
       profondeur="0.0"
       id="path69-0" />
    <path
       d="m 26.169472,194.14147 70.710594,-40.8248"
       stroke="#0000ff"
       stroke-width="1"
       style="stroke-width:3.90883;stroke-linecap:round;stroke-dasharray:none;fill:none"
       profondeur="0.0"
       id="path70-3" />
    <path
       d="m -127.78056,123.47335 -0.7883,-0.4836 -1.4688,-1.0758 -1.3613,-1.2405 -1.2485,-1.4004 -1.1306,-1.5548 -1.0083,-1.703 -0.88211,-1.8444 -0.7524,-1.9787 -0.6197,-2.1051 -0.4845,-2.2232 -0.3474,-2.3325 -0.2091,-2.4326 -0.0697,-2.5231 v 0 l 0.0697,-2.603697 0.2091,-2.674 0.3474,-2.7337 0.4845,-2.7826 0.6197,-2.8206 0.7524,-2.8475 0.88211,-2.863 1.0083,-2.8673 1.1306,-2.8603 1.2485,-2.842 1.3613,-2.8124 1.4688,-2.7718 1.5705,-2.7203 1.6661,-2.6579 1.755,-2.5852 1.837,-2.5022 1.9118,-2.4092 1.979,-2.307 2.0384,-2.1954 2.0897,-2.0753 2.13289,-1.9469 2.1676,-1.8109 2.1937,-1.6678 2.2112,-1.518 2.22,-1.3623 2.22,-1.2011 2.211204,-1.035299 2.1938,-0.8653 2.1675,-0.692001 2.1329,-0.5159 2.0898,-0.3378 2.0384,-0.1583 1.979,0.0217 1.9118,0.2018 1.837,0.381 1.755,0.5586 1.666,0.734201 0.7823,0.4232 141.4213,81.649596 -0.7822,-0.4231 -1.6661,-0.7342 -1.755,-0.5587 -1.837,-0.3809 -1.9118,-0.2018 -1.979,-0.0218 -2.0384,0.1584 -2.0897,0.3377 -2.1329,0.5159 -2.1676,0.692 -2.1937,0.8654 -2.2112,1.0353 -2.22,1.2011 -2.22,1.3623 -2.2112,1.518 -2.1938,1.6677 -2.1675,1.8109 -2.1329,1.947 -2.0898,2.0753 -2.0384,2.1954 -1.979,2.3069 -1.9118,2.4093 -1.837,2.5022 -1.755,2.5851 -1.666,2.658 -1.5706,2.7202 -1.4688,2.7718 -1.3613,2.8125 -1.2483996,2.842 -1.1306,2.8603 -1.0084,2.8673 -0.8821,2.863 -0.7523,2.8474 -0.6197,2.8206 -0.4845,2.7827 -0.3475,2.7337 -0.209,2.674 -0.0698,2.6036 v 0 l 0.0698,2.5232 0.209,2.4326 0.3475,2.3325 0.4845,2.2232 0.6197,2.1051 0.7523,1.9786 0.8821,1.8445 1.0084,1.703 1.1306,1.5547 1.2483996,1.4005 1.3613,1.2405 1.4688,1.0758 0.7883,0.4835 z"
       stroke="#ff0000"
       stroke-width="1"
       style="fill:none;stroke-width:3.90883;stroke-dasharray:none"
       profondeur="11.428149057870122"
       id="path71-4" />
    <rect
       style="fill:none;stroke:#ff0000;stroke-width:10.311;stroke-dasharray:none;stroke-opacity:1"
       id="rect77"
       width="1226.4094"
       height="833.96118"
       x="933.3833"
       y="961.62915"
       transform="matrix(-0.91888379,-0.39452829,0.99709189,0.07620871,0,0)" />
    <path
       style="fill:none;stroke:#ff0606;stroke-width:3.90883;stroke-dasharray:none;stroke-opacity:1"
       d="M 782.3723,104.65935 884.04738,-249.71892"
       id="path77" />
    <path
       style="fill:none;fill-opacity:1;stroke:#fa0000;stroke-width:3.90883;stroke-dasharray:none;stroke-opacity:1"
       d="m 209.84014,-153.16658 89.37505,-215.39239"
       id="path78" />
    <path
       style="fill:none;stroke:#f70000;stroke-width:3.90882953;stroke-dasharray:none;stroke-opacity:0.811388"
       d="M -31.034618,75.308689 180.96484,-404.09746"
       id="path79"
       inkscape:label="path79" />
    <g
       credits="Auteur : Raphaël ALLAIS - Éduscol-STI"
       id="g72-6-1"
       transform="matrix(-0.86360102,0.29440625,0.27602436,0.91208996,-931.44346,-469.02521)"
       style="stroke-width:4.19325;stroke-dasharray:none;fill:none">
      <g
         id="g67-5-5"
         style="stroke-width:4.19325;stroke-dasharray:none;fill:none" />
      <path
         d="m -141.4214,-40.8248 70.7107,-40.8249"
         stroke="#0000ff"
         stroke-width="1"
         style="stroke-width:4.19325;stroke-linecap:round;stroke-dasharray:none;fill:none"
         profondeur="-86.60254037844388"
         id="path67-7-3" />
      <path
         d="m -45.726,-84.1349 0.7883,0.4835 1.4688,1.0758 1.3613,1.2405 1.2484,1.4005 1.1306,1.5547 1.0084,1.703 0.8821,1.8445 0.7523,1.9786 0.6197,2.1051 0.4845,2.2232 0.3475,2.3325 0.209,2.4326 0.0698,2.5232 -0.0698,2.6036 -0.209,2.674 -0.3475,2.7337 -0.4845,2.7827 -0.6197,2.8206 -0.7523,2.8474 -0.8821,2.863 -1.0084,2.8673 -1.1306,2.8603 -1.2484,2.842 -1.3613,2.8125 -1.4688,2.7718 -1.5706,2.7202 -1.666,2.658 -1.755,2.5851 -1.837,2.5022 -1.9118,2.4093 -1.979,2.3069 -2.0384,2.1954 -2.0898,2.0753 -2.1329,1.947 -2.1675,1.8109 -2.1938,1.6677 -2.2112,1.518 -2.22,1.3623 -2.22,1.2011 -2.2112,1.0353 -2.1937,0.8654 -2.1676,0.692 -2.1329,0.5159 -2.0897,0.3377 -2.0384,0.1584 -1.979,-0.0218 -1.9118,-0.2018 -1.837,-0.3809 -1.755,-0.5587 -1.6661,-0.7342 -0.7822,-0.4231 141.4213,81.6496 0.7823,0.4232 1.666,0.7342 1.755,0.5586 1.837,0.381 1.9118,0.2018 1.979,0.0217 2.0384,-0.1583 2.0898,-0.3378 2.1329,-0.5159 2.1675,-0.692 2.1938,-0.8653 2.2112,-1.0353 2.22,-1.2011 2.22,-1.3623 2.2112,-1.518 2.1937,-1.6678 2.1676,-1.8109 2.1329,-1.9469 2.0897,-2.0753 2.0384,-2.1954 1.979,-2.307 1.9118,-2.4092 1.837,-2.5022 1.755,-2.5852 1.6661,-2.6579 1.5705,-2.7203 1.4688,-2.7718 1.3613,-2.8124 1.2485,-2.842 1.1306,-2.8603 1.0083,-2.8673 0.8821,-2.863 0.7524,-2.8475 0.6197,-2.8206 0.4845,-2.7826 0.3474,-2.7337 0.2091,-2.674 0.0697,-2.6037 -0.0697,-2.5231 -0.2091,-2.4326 -0.3474,-2.3325 -0.4845,-2.2232 -0.6197,-2.1051 -0.7524,-1.9787 -0.8821,-1.8444 -1.0083,-1.703 -1.1306,-1.5548 -1.2485,-1.4004 -1.3613,-1.2405 -1.4688,-1.0758 -0.7883,-0.4836 z"
         stroke="#ff0000"
         stroke-width="1"
         style="fill:none;stroke-width:4.19325;stroke-dasharray:none"
         profondeur="-11.428149057870101"
         id="path68-7-4" />
      <path
         d="M -141.4214,-81.6497 141.4214,81.6497"
         stroke="#0000ff"
         stroke-width="1"
         style="stroke-width:4.19325;stroke-linecap:round;stroke-dasharray:none;fill:none"
         profondeur="0.0"
         id="path69-2-5" />
      <path
         d="M 58.9256,74.8455 129.6362,34.0207"
         stroke="#0000ff"
         stroke-width="1"
         style="stroke-width:4.19325;stroke-linecap:round;stroke-dasharray:none;fill:none"
         profondeur="0.0"
         id="path70-9-1" />
      <path
         d="m -95.6953,2.4853 -0.7883,-0.4836 -1.4688,-1.0758 -1.3613,-1.2405 -1.2485,-1.4004 -1.1306,-1.5548 -1.0083,-1.703 -0.8821,-1.8444 -0.7524,-1.9787 -0.6197,-2.1051 -0.4845,-2.2232 -0.3474,-2.3325 -0.2091,-2.4326 -0.0697,-2.5231 v 0 l 0.0697,-2.6037 0.2091,-2.674 0.3474,-2.7337 0.4845,-2.7826 0.6197,-2.8206 0.7524,-2.8475 0.8821,-2.863 1.0083,-2.8673 1.1306,-2.8603 1.2485,-2.842 1.3613,-2.8124 1.4688,-2.7718 1.5705,-2.7203 1.6661,-2.6579 1.755,-2.5852 1.837,-2.5022 1.9118,-2.4092 1.979,-2.307 2.0384,-2.1954 2.0897,-2.0753 2.1329,-1.9469 2.1676,-1.8109 2.1937,-1.6678 2.2112,-1.518 2.22,-1.3623 2.22,-1.2011 2.2112,-1.0353 2.1938,-0.8653 2.1675,-0.692 2.1329,-0.5159 2.0898,-0.3378 2.0384,-0.1583 1.979,0.0217 1.9118,0.2018 1.837,0.381 1.755,0.5586 1.666,0.7342 0.7823,0.4232 141.4213,81.6496 -0.7822,-0.4231 -1.6661,-0.7342 -1.755,-0.5587 -1.837,-0.3809 -1.9118,-0.2018 -1.979,-0.0218 -2.0384,0.1584 -2.0897,0.3377 -2.1329,0.5159 -2.1676,0.692 -2.1937,0.8654 -2.2112,1.0353 -2.22,1.2011 -2.22,1.3623 -2.2112,1.518 -2.1938,1.6677 -2.1675,1.8109 -2.1329,1.947 -2.0898,2.0753 -2.0384,2.1954 -1.979,2.3069 -1.9118,2.4093 -1.837,2.5022 -1.755,2.5851 -1.666,2.658 -1.5706,2.7202 -1.4688,2.7718 -1.3613,2.8125 -1.2484,2.842 -1.1306,2.8603 -1.0084,2.8673 -0.8821,2.863 -0.7523,2.8474 -0.6197,2.8206 -0.4845,2.7827 -0.3475,2.7337 -0.209,2.674 -0.0698,2.6036 v 0 l 0.0698,2.5232 0.209,2.4326 0.3475,2.3325 0.4845,2.2232 0.6197,2.1051 0.7523,1.9786 0.8821,1.8445 1.0084,1.703 1.1306,1.5547 1.2484,1.4005 1.3613,1.2405 1.4688,1.0758 0.7883,0.4835 z"
         stroke="#ff0000"
         stroke-width="1"
         style="fill:none;stroke-width:4.19325;stroke-dasharray:none"
         profondeur="11.428149057870122"
         id="path71-6-4" />
      <path
         d="m 0,-40.8248 v -81.6497"
         stroke="#ff0000"
         stroke-width="1"
         style="stroke-width:4.19325;stroke-linecap:round;stroke-dasharray:none;fill:none"
         profondeur="577350269189.6259"
         id="path72-3-8" />
    </g>
    <ellipse
       style="fill:none;stroke:#0000ff;stroke-width:3.91372;stroke-dasharray:none;stroke-opacity:1"
       id="path75-7"
       cx="-925.83112"
       cy="509.95764"
       rx="71.742706"
       ry="12.043221"
       transform="matrix(0.68458293,0.72893498,-0.77549007,0.63135977,0,0)" />
    <g
       credits="Auteur : Raphaël ALLAIS - Éduscol-STI"
       id="g72-6-1-1"
       transform="matrix(-0.91390365,0.09450487,0.03584763,0.94709911,-540.1268,-376.36963)"
       style="stroke-width:4.19325;stroke-dasharray:none;fill:none">
      <g
         id="g67-5-5-0"
         style="stroke-width:4.19325;stroke-dasharray:none;fill:none" />
      <path
         d="m -141.4214,-40.8248 70.7107,-40.8249"
         stroke="#0000ff"
         stroke-width="1"
         style="stroke-width:4.19325;stroke-linecap:round;stroke-dasharray:none;fill:none"
         profondeur="-86.60254037844388"
         id="path67-7-3-5" />
      <path
         d="m -45.726,-84.1349 0.7883,0.4835 1.4688,1.0758 1.3613,1.2405 1.2484,1.4005 1.1306,1.5547 1.0084,1.703 0.8821,1.8445 0.7523,1.9786 0.6197,2.1051 0.4845,2.2232 0.3475,2.3325 0.209,2.4326 0.0698,2.5232 -0.0698,2.6036 -0.209,2.674 -0.3475,2.7337 -0.4845,2.7827 -0.6197,2.8206 -0.7523,2.8474 -0.8821,2.863 -1.0084,2.8673 -1.1306,2.8603 -1.2484,2.842 -1.3613,2.8125 -1.4688,2.7718 -1.5706,2.7202 -1.666,2.658 -1.755,2.5851 -1.837,2.5022 -1.9118,2.4093 -1.979,2.3069 -2.0384,2.1954 -2.0898,2.0753 -2.1329,1.947 -2.1675,1.8109 -2.1938,1.6677 -2.2112,1.518 -2.22,1.3623 -2.22,1.2011 -2.2112,1.0353 -2.1937,0.8654 -2.1676,0.692 -2.1329,0.5159 -2.0897,0.3377 -2.0384,0.1584 -1.979,-0.0218 -1.9118,-0.2018 -1.837,-0.3809 -1.755,-0.5587 -1.6661,-0.7342 -0.7822,-0.4231 141.4213,81.6496 0.7823,0.4232 1.666,0.7342 1.755,0.5586 1.837,0.381 1.9118,0.2018 1.979,0.0217 2.0384,-0.1583 2.0898,-0.3378 2.1329,-0.5159 2.1675,-0.692 2.1938,-0.8653 2.2112,-1.0353 2.22,-1.2011 2.22,-1.3623 2.2112,-1.518 2.1937,-1.6678 2.1676,-1.8109 2.1329,-1.9469 2.0897,-2.0753 2.0384,-2.1954 1.979,-2.307 1.9118,-2.4092 1.837,-2.5022 1.755,-2.5852 1.6661,-2.6579 1.5705,-2.7203 1.4688,-2.7718 1.3613,-2.8124 1.2485,-2.842 1.1306,-2.8603 1.0083,-2.8673 0.8821,-2.863 0.7524,-2.8475 0.6197,-2.8206 0.4845,-2.7826 0.3474,-2.7337 0.2091,-2.674 0.0697,-2.6037 -0.0697,-2.5231 -0.2091,-2.4326 -0.3474,-2.3325 -0.4845,-2.2232 -0.6197,-2.1051 -0.7524,-1.9787 -0.8821,-1.8444 -1.0083,-1.703 -1.1306,-1.5548 -1.2485,-1.4004 -1.3613,-1.2405 -1.4688,-1.0758 -0.7883,-0.4836 z"
         stroke="#ff0000"
         stroke-width="1"
         style="fill:none;stroke-width:4.19325;stroke-dasharray:none"
         profondeur="-11.428149057870101"
         id="path68-7-4-4" />
      <path
         d="M -141.4214,-81.6497 141.4214,81.6497"
         stroke="#0000ff"
         stroke-width="1"
         style="stroke-width:4.19325;stroke-linecap:round;stroke-dasharray:none;fill:none"
         profondeur="0.0"
         id="path69-2-5-9" />
      <path
         d="M 58.9256,74.8455 129.6362,34.0207"
         stroke="#0000ff"
         stroke-width="1"
         style="stroke-width:4.19325;stroke-linecap:round;stroke-dasharray:none;fill:none"
         profondeur="0.0"
         id="path70-9-1-3" />
      <path
         d="m -95.6953,2.4853 -0.7883,-0.4836 -1.4688,-1.0758 -1.3613,-1.2405 -1.2485,-1.4004 -1.1306,-1.5548 -1.0083,-1.703 -0.8821,-1.8444 -0.7524,-1.9787 -0.6197,-2.1051 -0.4845,-2.2232 -0.3474,-2.3325 -0.2091,-2.4326 -0.0697,-2.5231 v 0 l 0.0697,-2.6037 0.2091,-2.674 0.3474,-2.7337 0.4845,-2.7826 0.6197,-2.8206 0.7524,-2.8475 0.8821,-2.863 1.0083,-2.8673 1.1306,-2.8603 1.2485,-2.842 1.3613,-2.8124 1.4688,-2.7718 1.5705,-2.7203 1.6661,-2.6579 1.755,-2.5852 1.837,-2.5022 1.9118,-2.4092 1.979,-2.307 2.0384,-2.1954 2.0897,-2.0753 2.1329,-1.9469 2.1676,-1.8109 2.1937,-1.6678 2.2112,-1.518 2.22,-1.3623 2.22,-1.2011 2.2112,-1.0353 2.1938,-0.8653 2.1675,-0.692 2.1329,-0.5159 2.0898,-0.3378 2.0384,-0.1583 1.979,0.0217 1.9118,0.2018 1.837,0.381 1.755,0.5586 1.666,0.7342 0.7823,0.4232 141.4213,81.6496 -0.7822,-0.4231 -1.6661,-0.7342 -1.755,-0.5587 -1.837,-0.3809 -1.9118,-0.2018 -1.979,-0.0218 -2.0384,0.1584 -2.0897,0.3377 -2.1329,0.5159 -2.1676,0.692 -2.1937,0.8654 -2.2112,1.0353 -2.22,1.2011 -2.22,1.3623 -2.2112,1.518 -2.1938,1.6677 -2.1675,1.8109 -2.1329,1.947 -2.0898,2.0753 -2.0384,2.1954 -1.979,2.3069 -1.9118,2.4093 -1.837,2.5022 -1.755,2.5851 -1.666,2.658 -1.5706,2.7202 -1.4688,2.7718 -1.3613,2.8125 -1.2484,2.842 -1.1306,2.8603 -1.0084,2.8673 -0.8821,2.863 -0.7523,2.8474 -0.6197,2.8206 -0.4845,2.7827 -0.3475,2.7337 -0.209,2.674 -0.0698,2.6036 v 0 l 0.0698,2.5232 0.209,2.4326 0.3475,2.3325 0.4845,2.2232 0.6197,2.1051 0.7523,1.9786 0.8821,1.8445 1.0084,1.703 1.1306,1.5547 1.2484,1.4005 1.3613,1.2405 1.4688,1.0758 0.7883,0.4835 z"
         stroke="#ff0000"
         stroke-width="1"
         style="fill:none;stroke-width:4.19325;stroke-dasharray:none"
         profondeur="11.428149057870122"
         id="path71-6-4-6" />
      <path
         d="m 0,-40.8248 v -81.6497"
         stroke="#ff0000"
         stroke-width="1"
         style="stroke-width:4.19325;stroke-linecap:round;stroke-dasharray:none;fill:none"
         profondeur="577350269189.6259"
         id="path72-3-8-5" />
    </g>
    <ellipse
       style="fill:none;stroke:#0000ff;stroke-width:3.91256;stroke-dasharray:none;stroke-opacity:1"
       id="path75-7-4"
       cx="-570.06854"
       cy="424.09503"
       rx="70.79113"
       ry="12.197874"
       transform="matrix(0.52217987,0.85283538,-0.88345449,0.46851699,0,0)" />
    <path
       style="fill:none;stroke:#ff0606;stroke-width:3.90883;stroke-dasharray:none;stroke-opacity:1"
       d="M -543.62121,-492.21756 -408.4397,-713.337"
       id="path77-8" />
    <path
       style="fill:none;stroke:#ff0606;stroke-width:3.90882953;stroke-dasharray:none;stroke-opacity:1"
       d="m -965.64209,-581.14208 97.43381,-179.9654"
       id="path77-4" />
    <ellipse
       style="fill:none;stroke:#0000ff;stroke-width:3.91152;stroke-dasharray:none;stroke-opacity:1"
       id="path76-3"
       cx="577.68933"
       cy="77.696152"
       rx="29.243755"
       ry="108.89081"
       transform="matrix(-0.91888379,-0.39452831,-0.4421948,0.89691904,0,0)" />
    <path
       d="m -568.79131,-120.07973 50.92548,-32.73349"
       stroke="#0000ff"
       stroke-width="0.686937"
       style="stroke-width:3.90883;stroke-linecap:round;stroke-dasharray:none;fill:none"
       profondeur="-86.60254037844388"
       id="path67-4-3" />
    <path
       d="m -501.73548,-155.35827 0.42123,0.34424 0.75756,0.77357 0.66412,0.90089 0.56802,1.02478 0.46972,1.14443 0.36957,1.25973 0.26792,1.37004 0.16521,1.47481 0.0619,1.57392 -0.0417,1.66677 -0.14513,1.75299 -0.24796,1.83234 -0.34982,1.90451 -0.45035,1.96898 -0.54903,2.02588 -0.64561,2.07469 -0.73959,2.11538 -0.8307,2.14761 -0.91841,2.17141 -1.00265,2.18667 -1.0829,2.19328 -1.15879,2.19125 -1.23016,2.18059 -1.2967,2.16131 -1.35807,2.13344 -1.41417,2.09716 -1.46458,2.05272 -1.50927,2.00001 -1.54799,1.93958 -1.58062,1.87137 -1.60699,1.79582 -1.62702,1.713146 -1.64066,1.62378 -1.64777,1.52801 -1.64835,1.4261 -1.64256,1.3186 -1.63017,1.20597 -1.61141,1.08857 -1.58625,0.96677 -1.55483,0.84128 -1.51729,0.71243 -1.47377,0.58073 -1.42442,0.44675 -1.36939,0.31097 -1.3091,0.17413 -1.24354,0.0364 -1.17308,-0.10146 -1.09802,-0.23871 -1.01859,-0.37525 -0.93519,-0.5102 -0.42683,-0.29878 76.36385,57.911601 0.42686,0.298845 0.93513,0.510213 1.01862,0.375163 1.098,0.23879 1.1731,0.101363 1.24354,-0.03647 1.30908,-0.17405 1.36946,-0.311043 1.42443,-0.446755 1.47372,-0.580728 1.51733,-0.712366 1.55482,-0.841272 1.58625,-0.966774 1.61141,-1.088567 1.63017,-1.205969 1.64251,-1.318672 1.64841,-1.426109 1.64778,-1.527928 1.64059,-1.623782 1.62701,-1.713151 1.607,-1.79589 1.58062,-1.8713 1.54799,-1.93957 1.50928,-2.00008 1.46462,-2.05265 1.41412,-2.09723 1.35808,-2.13344 1.29668,-2.16123 1.23023,-2.18058 1.15879,-2.19126 1.08283,-2.19328 1.00264,-2.18667 0.91851,-2.17149 0.83069,-2.14761 0.73956,-2.1153 0.64556,-2.074679 0.54911,-2.0259 0.45028,-1.96904 0.34988,-1.90444 0.24786,-1.83233 0.14513,-1.75301 0.0417,-1.66676 -0.0619,-1.57393 -0.16525,-1.47489 -0.26794,-1.36994 -0.36951,-1.25974 -0.46971,-1.14452 -0.5681,-1.02469 -0.66412,-0.90089 -0.75755,-0.77356 -0.42122,-0.34432 z"
       stroke="#ff0000"
       stroke-width="0.686937"
       style="fill:none;stroke-width:3.90883;stroke-dasharray:none"
       profondeur="-11.428149057870101"
       id="path68-9-4" />
    <path
       d="m -560.61765,-154.61716 159.50947,117.625548"
       stroke="#0000ff"
       stroke-width="0.680964"
       style="stroke-width:3.90883;stroke-linecap:round;stroke-dasharray:none;fill:none"
       profondeur="0.0"
       id="path69-0-9" />
    <path
       d="m -460.6091,-38.038278 50.9254,-32.733414"
       stroke="#0000ff"
       stroke-width="0.686937"
       style="stroke-width:3.90883;stroke-linecap:round;stroke-dasharray:none;fill:none"
       profondeur="0.0"
       id="path70-3-8" />
    <path
       d="m -546.73965,-88.578814 -0.42122,-0.34432 -0.75756,-0.77357 -0.66412,-0.90088 -0.56809,-1.0247 -0.46972,-1.14451 -0.36951,-1.25974 -0.26794,-1.36995 -0.16525,-1.47489 -0.0619,-1.57392 0.0417,-1.666756 0.14513,-1.75302 0.24786,-1.83232 0.34988,-1.90443 v 0 l 0.45029,-1.96906 0.5491,-2.02589 0.64555,-2.07468 0.73957,-2.11531 0.8307,-2.14762 0.9185,-2.17148 1.00264,-2.18667 1.08283,-2.19328 1.15879,-2.19126 1.23023,-2.18059 1.29668,-2.16122 1.35808,-2.13343 1.41412,-2.09724 1.46462,-2.05264 1.50928,-2.00009 1.548,-1.93957 1.58061,-1.87131 1.607,-1.79589 1.62702,-1.71315 1.64059,-1.62379 1.64777,-1.52793 1.64841,-1.42609 1.64251,-1.31868 1.63017,-1.20597 1.61141,-1.08857 1.58625,-0.96677 1.55483,-0.84128 1.51732,-0.71236 1.47372,-0.58074 1.42443,-0.44674 1.36946,-0.31104 1.30908,-0.17406 1.24355,-0.0365 1.1731,0.10146 1.09799,0.23879 1.01862,0.37516 0.93514,0.51022 0.42686,0.29884 76.36383,57.911606 -0.42681,-0.29877 -0.93519,-0.51021 -1.0186,-0.37524 -1.09802,-0.23872 -1.17309,-0.10146 -1.24353,0.0364 -1.30909,0.17414 -1.36939,0.31095 -1.42443,0.44676 -1.47377,0.58073 -1.51729,0.71243 -1.55483,0.84128 -1.58625,0.96678 -1.61141,1.08856 -1.63016,1.20597 -1.64256,1.31861 -1.64835,1.4261 -1.64779,1.528 -1.64065,1.62378 -1.62701,1.71317 -1.60699,1.7958 -1.58063,1.87138 -1.54799,1.93957 -1.50927,2.00002 -1.46457,2.05272 -1.41417,2.097162 -1.35808,2.13343 -1.29669,2.1613 -1.23017,2.18058 -1.1588,2.19126 -1.08289,2.1933 -1.00265,2.18665 -0.91842,2.17141 -0.83068,2.14762 -0.73959,2.11538 -0.64562,2.07469 -0.54903,2.02588 -0.45034,1.96898 v 0 l -0.34983,1.9045 -0.24796,1.83234 -0.14514,1.753003 -0.0417,1.66676 0.0619,1.573925 0.16519,1.474812 0.26792,1.370023 0.36959,1.259741 0.46971,1.144431 0.56802,1.024782 0.66412,0.900879 0.75756,0.77357 0.42124,0.344247 z"
       stroke="#ff0000"
       stroke-width="0.686937"
       style="fill:none;stroke-width:3.90883;stroke-dasharray:none"
       profondeur="11.428149057870122"
       id="path71-4-7" />
    <path
       d="M 403.45706,130.93273 450.93314,97.085101"
       stroke="#0000ff"
       stroke-width="0.680964"
       style="stroke-width:3.90883;stroke-linecap:round;stroke-dasharray:none;fill:none"
       profondeur="-86.60254037844388"
       id="path67-4-3-7" />
    <path
       d="m 466.96406,93.902201 0.47078,0.31263 0.86627,0.71108 0.7877,0.83799 0.70599,0.96173 0.62152,1.08147 0.53463,1.19711 0.44556,1.307989 0.35472,1.41361 0.26258,1.51379 0.16931,1.60794 0.0754,1.69572 -0.0188,1.77682 -0.1129,1.85098 -0.20662,1.91765 -0.29946,1.97696 -0.39118,2.02836 -0.48129,2.07182 -0.56957,2.10701 -0.65549,2.13391 -0.73895,2.15242 -0.81947,2.16244 -0.89668,2.16392 -0.97039,2.15687 -1.0403,2.14131 -1.10606,2.11723 -1.16754,2.08482 -1.22429,2.04428 -1.27629,1.99552 -1.32323,1.93903 -1.36497,1.8748 -1.40129,1.80318 -1.43209,1.72444 -1.45726,1.63894 -1.47665,1.54698 -1.49016,1.44881 -1.49794,1.34497 -1.49967,1.23587 -1.49556,1.1219 -1.48551,1.0034 -1.46959,0.88105 -1.44788,0.7552 -1.42049,0.62633 -1.38746,0.49499 -1.3489,0.36166 -1.30514,0.22708 -1.25616,0.0914 -1.20223,-0.0446 -1.14355,-0.18029 -1.08036,-0.31544 -1.01293,-0.44927 -0.47067,-0.26856 84.77473,52.34354 0.47072,0.26863 1.01287,0.44928 1.08037,0.31536 1.14354,0.18036 1.20224,0.0446 1.25616,-0.0915 1.30513,-0.227 1.34897,-0.36174 1.38747,-0.49499 1.42042,-0.62632 1.44794,-0.75514 1.46958,-0.88105 1.48551,-1.0034 1.49556,-1.1219 1.49967,-1.23587 1.49789,-1.34503 1.49022,-1.44882 1.47665,-1.5469 1.4572,-1.63894 1.43208,-1.72444 1.4013,-1.80325 1.36496,-1.87473 1.32323,-1.93903 1.2763,-1.99559 1.22434,-2.04421 1.16748,-2.08489 1.10607,-2.11723 1.04029,-2.14123 0.97046,-2.15688 0.89668,-2.16392 0.8194,-2.16243 0.73895,-2.15243 0.65556,-2.13399 0.56957,-2.10701 0.48128,-2.07174 0.39113,-2.02835 0.29952,-1.97697 0.20656,-1.91772 0.11296,-1.85091 0.0187,-1.77681 -0.0754,-1.69573 -0.16931,-1.60794 -0.26258,-1.51379 -0.35478,-1.41368 -0.44557,-1.30791 -0.53456,-1.19712 -0.62152,-1.08155 -0.70606,-0.96164 -0.7877,-0.83799 -0.86627,-0.71108 -0.47077,-0.3127 z"
       stroke="#ff0000"
       stroke-width="0.680964"
       style="fill:none;stroke-width:3.90883;stroke-dasharray:none"
       profondeur="-11.428149057870101"
       id="path68-9-4-0" />
    <path
       d="M 406.0014,100.92299 575.55098,205.61021"
       stroke="#0000ff"
       stroke-width="0.680964"
       style="stroke-width:3.90883;stroke-linecap:round;stroke-dasharray:none;fill:none"
       profondeur="0.0"
       id="path69-0-9-6" />
    <path
       d="M 523.55469,205.08609 571.0307,171.23855"
       stroke="#0000ff"
       stroke-width="0.680964"
       style="stroke-width:3.90883;stroke-linecap:round;stroke-dasharray:none;fill:none"
       profondeur="0.0"
       id="path70-3-8-2" />
    <path
       d="m 429.81359,160.28746 -0.47077,-0.3127 -0.86627,-0.71108 -0.7877,-0.83799 -0.70606,-0.96164 -0.62152,-1.08155 -0.53456,-1.19712 -0.44557,-1.30791 -0.35478,-1.41368 -0.26258,-1.51379 -0.16931,-1.60794 -0.0754,-1.69573 0.0187,-1.77681 0.11296,-1.85091 v 0 l 0.20656,-1.91772 0.29952,-1.97697 0.39113,-2.02835 0.48128,-2.07174 0.56957,-2.10702 0.65556,-2.13398 0.73895,-2.15243 0.8194,-2.16243 0.89668,-2.16393 0.97046,-2.15687 1.04029,-2.14123 1.10607,-2.11723 1.16748,-2.08489 1.22434,-2.04421 1.2763,-1.99559 1.32323,-1.93903 1.36496,-1.87473 1.4013,-1.80326 1.43208,-1.72443 1.4572,-1.63895 1.47665,-1.5469 1.49022,-1.44881 1.49789,-1.345039 1.49967,-1.23587 1.49556,-1.1219 1.48551,-1.0034 1.46959,-0.88105 1.44793,-0.75513 1.42042,-0.62633 1.38747,-0.49499 1.34897,-0.36174 1.30513,-0.227 1.25616,-0.0915 1.20224,0.0446 1.14354,0.18036 1.08037,0.31536 1.01287,0.44928 0.47072,0.26862 84.77473,52.343549 -0.47067,-0.26856 -1.01293,-0.44927 -1.08036,-0.31544 -1.14355,-0.18029 -1.20223,-0.0446 -1.25616,0.0914 -1.30514,0.22708 -1.3489,0.36165 -1.38746,0.495 -1.42049,0.62633 -1.44788,0.7552 -1.46959,0.88105 -1.48551,1.0034 -1.49556,1.1219 -1.49967,1.23587 -1.49794,1.34497 -1.49016,1.44881 -1.47665,1.54697 -1.45726,1.63895 -1.43209,1.72444 -1.40129,1.80318 -1.36497,1.8748 -1.32323,1.93903 -1.27629,1.99552 -1.22429,2.04428 -1.16754,2.08482 -1.10606,2.11723 -1.0403,2.14131 -0.97039,2.15686 -0.89668,2.16393 -0.81947,2.16244 -0.73895,2.15242 -0.65549,2.13391 -0.56957,2.10701 -0.48129,2.07182 -0.39118,2.02836 -0.29946,1.97696 -0.20662,1.91765 v 0 l -0.1129,1.85098 -0.0188,1.77682 0.0754,1.69572 0.16931,1.60794 0.26258,1.51379 0.35472,1.41361 0.44556,1.30798 0.53463,1.19712 0.62152,1.08147 0.70599,0.96173 0.7877,0.83798 0.86627,0.71109 0.47078,0.31262 z"
       stroke="#ff0000"
       stroke-width="0.680964"
       style="fill:none;stroke-width:3.90883;stroke-dasharray:none"
       profondeur="11.428149057870122"
       id="path71-4-7-7" />
    <path
       d="M 502.58325,123.19571 524.80068,64.70479"
       stroke="#ff0000"
       stroke-width="0.680964"
       style="stroke-width:3.90883;stroke-linecap:round;stroke-dasharray:none;fill:none"
       profondeur="577350269189.6259"
       id="path72-5-5-8" />
    <path
       style="fill:none;stroke:#f70000;stroke-width:3.90883;stroke-dasharray:none;stroke-opacity:0.811388"
       d="M 517.79682,82.887641 678.35865,-292.21992"
       id="path79-3"
       inkscape:label="path79" />
    <path
       style="fill:none;stroke:#f70000;stroke-width:3.90883;stroke-dasharray:none;stroke-opacity:0.811388"
       d="m -472.33867,-124.2527 185.18481,-365.09086"
       id="path79-1"
       inkscape:label="path79" />
    <ellipse
       style="fill:none;stroke:#0101ff;stroke-width:3.91152;stroke-dasharray:none;stroke-opacity:1"
       id="path76-3-8"
       cx="-403.55862"
       cy="-70.362862"
       rx="29.243755"
       ry="108.89081"
       transform="matrix(-0.91888379,-0.39452831,-0.4421948,0.89691904,0,0)" />
    <path
       style="fill:none;stroke:#ff0000;stroke-width:4.26062;stroke-dasharray:none;stroke-dashoffset:0;stroke-opacity:1"
       d="m 676.01238,-287.1605 c 82.18093,40.90108 82.18093,40.90108 82.18093,40.90108"
       id="path51" />
    <path
       style="fill:none;stroke:#ff0000;stroke-width:4.26062;stroke-dasharray:none;stroke-dashoffset:0;stroke-opacity:1"
       d="m 297.56047,-368.21652 c 214.04786,103.13509 216.53215,104.20173 216.53215,104.20173"
       id="path52" />
    <path
       style="fill:none;stroke:#ff0000;stroke-width:4.26062;stroke-dasharray:none;stroke-dashoffset:0;stroke-opacity:1"
       d="M 178.91171,-402.31054 C 442.84463,-272.1408 442.84463,-272.1408 442.84463,-272.1408"
       id="path53" />
    <path
       style="fill:none;stroke:#ff0000;stroke-width:4.26062;stroke-dasharray:none;stroke-dashoffset:0;stroke-opacity:1"
       d="m -289.12167,-490.93995 c 450.99944,196.44746 450.99944,196.44746 450.99944,196.44746"
       id="path54" />
    <path
       style="fill:none;stroke:#ff0000;stroke-width:4.26062;stroke-dasharray:none;stroke-dashoffset:0;stroke-opacity:1"
       d="m -409.37391,-711.0563 882.97351,443.69606 v 0"
       id="path55" />
    <path
       style="fill:none;stroke:#ff0000;stroke-width:4.26062;stroke-dasharray:none;stroke-dashoffset:0;stroke-opacity:1"
       d="m -869.90204,-759.95813 1093.2898,475.02678 v 0"
       id="path56" />
    <path
       style="fill:none;stroke:#ff0000;stroke-width:4.26062;stroke-dasharray:none;stroke-dashoffset:0;stroke-opacity:1"
       d="m 883.37918,-248.32085 40.77338,15.7512"
       id="path57" />
  </g>
  <ellipse
     style="fill:none;stroke:#000000;stroke-width:0.447074;stroke-opacity:1"
     id="path73"
     cx="104.16023"
     cy="147.73552"
     rx="79.987915"
     ry="110.9493" />
  <ellipse
     style="fill:none;stroke:#0000ff;stroke-width:0.200619;stroke-dasharray:none;stroke-opacity:1"
     id="path75"
     cx="200.3623"
     cy="179.4538"
     rx="4.9372096"
     ry="0.74547547"
     transform="matrix(0.83929657,0.54367386,-0.63336542,0.77385285,0,0)" />
  <ellipse
     style="fill:none;stroke:#0000ff;stroke-width:0.200684;stroke-dasharray:none;stroke-opacity:1"
     id="path75-3"
     cx="226.19548"
     cy="145.51685"
     rx="3.7791147"
     ry="0.55234426"
     transform="matrix(0.79203931,0.61047009,-0.69855926,0.7155522,0,0)" />
  <g
     credits="Auteur : Raphaël ALLAIS - Éduscol-STI"
     id="g6"
     transform="matrix(0.10110224,0,0,0.09616659,102.70794,166.16421)"
     style="stroke-width:2.02832478;stroke-dasharray:none">
    <g
       id="g1"
       style="stroke-width:2.02832478;stroke-dasharray:none" />
    <path
       d="m 215.76196,273.02406 30.05233,15.38392"
       stroke="#0000ff"
       stroke-width="0.432883"
       style="stroke-width:2.02832;stroke-linecap:round;stroke-dasharray:none"
       profondeur="-86.60254037844388"
       id="path1" />
    <path
       d="m 252.14265,296.91181 -0.002,0.4127 -0.067,0.81391 -0.14959,0.8169 -0.23165,0.8167 -0.31268,0.81322 -0.39255,0.8066 -0.47088,0.79677 -0.54729,0.78371 -0.6216,0.7677 -0.69345,0.74858 -0.76252,0.72654 -0.82863,0.70157 -0.89146,0.67392 -0.95072,0.64351 -1.0063,0.61064 -1.05788,0.57532 -1.10529,0.53777 -1.14833,0.49805 -1.1868,0.4564 -1.22064,0.41292 -1.24966,0.36781 -1.27374,0.32129 -1.29278,0.27348 -1.30675,0.22459 -1.31551,0.1748 -1.31911,0.12428 -1.31752,0.0734 -1.31068,0.0221 -1.29874,-0.0292 -1.28163,-0.0805 -1.25945,-0.13136 -1.23231,-0.18175 -1.20033,-0.23141 -1.16361,-0.28017 -1.12224,-0.32779 -1.0765,-0.37421 -1.0265,-0.41906 -0.97246,-0.46227 -0.91454,-0.5037 -0.85305,-0.54309 -0.78819,-0.58034 -0.72021,-0.61536 -0.64939,-0.6479 -0.57595,-0.67789 -0.50037,-0.70519 -0.42269,-0.72976 -0.3434,-0.75143 -0.26277,-0.77008 -0.18104,-0.78576 -0.0986,-0.79833 -0.0181,-0.39494 1.42728,72.73041 0.0181,0.39501 0.0986,0.79829 0.18107,0.78574 0.26274,0.7701 0.34339,0.75142 0.42273,0.72974 0.50034,0.70522 0.57601,0.6779 0.64938,0.6479 0.72019,0.61532 0.78818,0.58041 0.85305,0.54308 0.91454,0.50371 0.97246,0.46227 1.0265,0.41905 1.07651,0.37416 1.12226,0.32782 1.16357,0.28019 1.20032,0.23138 1.23231,0.18175 1.25949,0.13134 1.28159,0.0805 1.29873,0.0293 1.31072,-0.0221 1.31751,-0.0733 1.31913,-0.12435 1.31551,-0.17479 1.30671,-0.22457 1.2928,-0.27345 1.27373,-0.32129 1.24965,-0.36784 1.22064,-0.41292 1.18686,-0.45639 1.14832,-0.49804 1.10526,-0.53775 1.05786,-0.57536 1.00632,-0.61061 0.95074,-0.64356 0.89144,-0.67386 0.8286,-0.70161 0.76255,-0.7265 0.69345,-0.74858 0.6216,-0.7677 0.5473,-0.78378 0.47084,-0.79674 0.39258,-0.80657 0.31271,-0.81325 0.23159,-0.8167 0.1496,-0.8169 0.067,-0.81391 0.002,-0.41273 z"
       stroke="#ff0000"
       stroke-width="0.432883"
       style="fill:#ffffff;stroke-width:2.02832;stroke-dasharray:none"
       profondeur="-11.428149057870101"
       id="path2" />
    <path
       d="m 231.84908,260.79443 2.85453,145.46096"
       stroke="#0000ff"
       stroke-width="0.432883"
       style="stroke-width:2.02832;stroke-linecap:round;stroke-dasharray:none"
       profondeur="0.0"
       id="path3" />
    <path
       d="m 217.78395,376.05888 30.05228,15.38391"
       stroke="#0000ff"
       stroke-width="0.432883"
       style="stroke-width:2.02832;stroke-linecap:round;stroke-dasharray:none"
       profondeur="0.0"
       id="path4" />
    <path
       d="m 210.14723,301.8792 0.002,-0.41272 0.067,-0.81391 0.14959,-0.8169 0.23159,-0.81671 0.31272,-0.81324 0.39257,-0.80658 0.47084,-0.79673 0.54731,-0.78378 0.6216,-0.7677 0.69344,-0.74858 0.76255,-0.7265 0.8286,-0.70161 0.89145,-0.67386 v 0 l 0.95073,-0.64356 1.00632,-0.61062 1.05786,-0.57535 1.10526,-0.53775 1.14832,-0.49803 1.18686,-0.4564 1.22064,-0.41292 1.24965,-0.36784 1.27373,-0.32129 1.29281,-0.27346 1.30671,-0.22456 1.31551,-0.17479 1.31912,-0.12435 1.31751,-0.0733 1.31072,-0.0221 1.29873,0.0292 1.2816,0.0805 1.25948,0.13133 1.23231,0.18175 1.20032,0.23139 1.16357,0.28018 1.12226,0.32783 1.07651,0.37415 1.0265,0.41905 0.97246,0.46228 0.91454,0.50371 0.85305,0.54308 0.78818,0.58041 0.72019,0.61531 0.64938,0.6479 0.57602,0.67791 0.50033,0.70521 0.42273,0.72974 0.34339,0.75142 0.26274,0.7701 0.18108,0.78574 0.0986,0.79829 0.0181,0.39501 1.42727,72.73042 -0.0181,-0.39495 -0.0986,-0.79833 -0.18104,-0.78576 -0.26277,-0.77008 -0.34339,-0.75142 -0.4227,-0.72976 -0.50036,-0.70519 -0.57596,-0.67789 -0.64938,-0.64791 -0.72021,-0.61535 -0.78819,-0.58034 -0.85306,-0.54309 -0.91454,-0.5037 -0.97246,-0.46228 -1.02649,-0.41905 -1.07651,-0.37422 -1.12223,-0.32779 -1.16361,-0.28016 -1.20034,-0.23142 -1.23231,-0.18175 -1.25945,-0.13136 -1.28163,-0.0805 -1.29873,-0.0292 -1.31069,0.0221 -1.31751,0.0734 -1.31912,0.12429 -1.31551,0.17479 -1.30674,0.22459 -1.29279,0.27348 -1.27373,0.3213 -1.24967,0.36781 -1.22064,0.41292 -1.1868,0.4564 -1.14832,0.49804 -1.1053,0.53778 -1.05788,0.57531 -1.0063,0.61065 -0.95072,0.6435 v 0 l -0.89146,0.67392 -0.82862,0.70157 -0.76253,0.72654 -0.69344,0.74858 -0.6216,0.7677 -0.5473,0.78372 -0.47087,0.79676 -0.39255,0.80661 -0.31269,0.81322 -0.23164,0.8167 -0.14959,0.81689 -0.067,0.81392 -0.002,0.4127 z"
       stroke="#ff0000"
       stroke-width="0.432883"
       style="fill:#ffffff;stroke-width:2.02832;stroke-dasharray:none"
       profondeur="11.428149057870122"
       id="path5" />
    <path
       d="m 235.42203,325.27007 29.33868,-20.98131"
       stroke="#ff0000"
       stroke-width="0.432883"
       style="stroke-width:2.02832;stroke-linecap:round;stroke-dasharray:none"
       profondeur="577350269189.6259"
       id="path6" />
    <path
       style="fill:#f00000;stroke:#ff0606;stroke-width:2.07923;stroke-dasharray:none"
       d="m 266.32592,303.29845 c 3.88639,266.63315 3.88639,266.63315 3.88639,266.63315"
       id="path7" />
    <ellipse
       style="fill:none;stroke:#000000;stroke-width:2.02832478;stroke-opacity:1;stroke-dasharray:none"
       id="path8"
       cx="-29.407042"
       cy="262.71573"
       rx="431.23422"
       ry="15.647383" />
    <path
       style="fill:#f00000;stroke:#ff0606;stroke-width:2.02832478;stroke-dasharray:none"
       d="m 312.6181,337.25723 c 3.89061,253.46145 3.89061,253.46145 3.89061,253.46145"
       id="path7-7" />
    <path
       style="fill:#f00000;stroke:#ff0606;stroke-width:2.02832478;stroke-dasharray:none"
       d="m 10.457341,339.84437 c 3.916928,183.16954 3.916928,183.16954 3.916928,183.16954"
       id="path7-4" />
    <path
       style="fill:#f00000;stroke:#ff0606;stroke-width:2.02832478;stroke-dasharray:none"
       d="m -187.37465,348.27795 c 3.92161,171.92355 3.92161,171.92355 3.92161,171.92355"
       id="path7-5" />
    <path
       style="fill:#f00000;stroke:#ff0606;stroke-width:2.02832478;stroke-dasharray:none"
       d="m -351.78508,341.2499 c 3.91751,181.76377 3.91751,181.76377 3.91751,181.76377"
       id="path7-8" />
    <path
       style="fill:#f00000;stroke:#ff0606;stroke-width:2.02832478;stroke-dasharray:none"
       d="m 426.97634,317.16247 c 3.87047,315.32313 3.87047,315.32313 3.87047,315.32313"
       id="path7-3" />
    <path
       style="fill:#f00000;stroke:#ff0606;stroke-width:2.02832478;stroke-dasharray:none"
       d="m 118.43203,330.02345 c 3.91381,190.90127 3.91381,190.90127 3.91381,190.90127"
       id="path7-30" />
    <path
       style="fill:#f00000;stroke:#ff0606;stroke-width:2.02832478;stroke-dasharray:none"
       d="m -265.18705,330.13318 c 3.91353,191.60416 3.91353,191.60416 3.91353,191.60416"
       id="path7-9" />
    <path
       style="fill:#f00000;stroke:#ff0606;stroke-width:2.02832478;stroke-dasharray:none"
       d="m -482.84015,312.62317 c 15.01227,208.60119 15.01227,208.60119 15.01227,208.60119"
       id="path7-92" />
  </g>
  <g
     credits="Auteur : Raphaël ALLAIS - Éduscol-STI"
     id="g15"
     transform="matrix(0.05490672,0,0,0.0383293,70.206289,199.1453)"
     style="stroke-width:4.35965176;stroke-dasharray:none">
    <g
       id="g13"
       transform="translate(-56.609951,-98.722828)"
       style="stroke-width:4.35965176;stroke-dasharray:none">
      <circle
         cx="2.3267521e-15"
         cy="-38"
         r="37.5"
         style="fill:#ffffff;stroke-width:4.35965176;stroke-dasharray:none"
         stroke="#0000ff"
         stroke-width="1"
         id="circle12" />
    </g>
    <g
       id="g14"
       transform="translate(-56.609951,-95.197013)"
       style="stroke-width:4.35965176;stroke-dasharray:none">
      <path
         d="M 75,5 H -75"
         stroke="#ff0000"
         stroke-width="1"
         id="path13"
         style="stroke-width:4.35965176;stroke-dasharray:none" />
      <path
         d="m 0,5 v 95"
         stroke="#ff0000"
         stroke-width="1"
         id="path14"
         style="stroke-width:4.35965176;stroke-dasharray:none" />
    </g>
    <g
       id="g13-0"
       transform="translate(247.56313,-78.188296)"
       style="stroke-width:4.35965176;stroke-dasharray:none">
      <circle
         cx="2.3267521e-15"
         cy="-38"
         r="37.5"
         style="fill:#ffffff;stroke-width:4.35965176;stroke-dasharray:none"
         stroke="#0000ff"
         stroke-width="1"
         id="circle12-2" />
    </g>
    <g
       id="g14-5"
       transform="translate(247.56314,-78.188297)"
       style="stroke-width:4.35965176;stroke-dasharray:none">
      <path
         d="M 75,5 H -75"
         stroke="#ff0000"
         stroke-width="1"
         id="path13-2"
         style="stroke-width:4.35965176;stroke-dasharray:none" />
      <path
         d="m 0,5 v 95"
         stroke="#ff0000"
         stroke-width="1"
         id="path14-1"
         style="stroke-width:4.35965176;stroke-dasharray:none" />
    </g>
    <g
       id="g13-08"
       transform="translate(611.83586,-85.239927)"
       style="stroke-width:4.35965176;stroke-dasharray:none">
      <circle
         cx="2.3267521e-15"
         cy="-38"
         r="37.5"
         style="fill:#ffffff;stroke-width:4.35965176;stroke-dasharray:none"
         stroke="#0000ff"
         stroke-width="1"
         id="circle12-0" />
    </g>
    <g
       id="g14-53"
       transform="translate(611.83586,-85.239927)"
       style="stroke-width:4.35965176;stroke-dasharray:none">
      <path
         d="M 75,5 H -75"
         stroke="#ff0000"
         stroke-width="1"
         id="path13-9"
         style="stroke-width:4.35965176;stroke-dasharray:none" />
      <path
         d="m 0,5 v 95"
         stroke="#ff0000"
         stroke-width="1"
         id="path14-0"
         style="stroke-width:4.35965176;stroke-dasharray:none" />
    </g>
    <g
       id="g13-4"
       transform="translate(1163.1676,-88.765743)"
       style="stroke-width:4.35965176;stroke-dasharray:none">
      <circle
         cx="2.3267521e-15"
         cy="-38"
         r="37.5"
         style="fill:#ffffff;stroke-width:4.35965176;stroke-dasharray:none"
         stroke="#0000ff"
         stroke-width="1"
         id="circle12-4" />
    </g>
    <g
       id="g14-8"
       transform="translate(1168.0902,-92.291558)"
       style="stroke-width:4.35965176;stroke-dasharray:none">
      <path
         d="M 75,5 H -75"
         stroke="#ff0000"
         stroke-width="1"
         id="path13-20"
         style="stroke-width:4.35965176;stroke-dasharray:none" />
      <path
         d="m 0,5 v 95"
         stroke="#ff0000"
         stroke-width="1"
         id="path14-4"
         style="stroke-width:4.35965176;stroke-dasharray:none" />
    </g>
  </g>
  <g
     credits="Auteur : Raphaël ALLAIS - Éduscol-STI"
     id="g50"
     transform="matrix(0.02027993,0.02847592,-0.03363233,0.01266115,145.7369,191.85552)"
     style="stroke-width:5.73898421;stroke-dasharray:none">
    <g
       id="g45"
       style="stroke-width:5.73898421;stroke-dasharray:none" />
    <path
       d="m -141.4214,-40.8248 70.7107,-40.8249"
       stroke="#ed333b"
       stroke-width="1"
       style="stroke-linecap:round;stroke-width:5.73898421;stroke-dasharray:none"
       profondeur="-86.60254037844388"
       id="path45" />
    <path
       d="m -45.726,-84.1349 0.7883,0.4835 1.4688,1.0758 1.3613,1.2405 1.2484,1.4005 1.1306,1.5547 1.0084,1.703 0.8821,1.8445 0.7523,1.9786 0.6197,2.1051 0.4845,2.2232 0.3475,2.3325 0.209,2.4326 0.0698,2.5232 -0.0698,2.6036 -0.209,2.674 -0.3475,2.7337 -0.4845,2.7827 -0.6197,2.8206 -0.7523,2.8474 -0.8821,2.863 -1.0084,2.8673 -1.1306,2.8603 -1.2484,2.842 -1.3613,2.8125 -1.4688,2.7718 -1.5706,2.7202 -1.666,2.658 -1.755,2.5851 -1.837,2.5022 -1.9118,2.4093 -1.979,2.3069 -2.0384,2.1954 -2.0898,2.0753 -2.1329,1.947 -2.1675,1.8109 -2.1938,1.6677 -2.2112,1.518 -2.22,1.3623 -2.22,1.2011 -2.2112,1.0353 -2.1937,0.8654 -2.1676,0.692 -2.1329,0.5159 -2.0897,0.3377 -2.0384,0.1584 -1.979,-0.0218 -1.9118,-0.2018 -1.837,-0.3809 -1.755,-0.5587 -1.6661,-0.7342 -0.7822,-0.4231 141.4213,81.6496 0.7823,0.4232 1.666,0.7342 1.755,0.5586 1.837,0.381 1.9118,0.2018 1.979,0.0217 2.0384,-0.1583 2.0898,-0.3378 2.1329,-0.5159 2.1675,-0.692 2.1938,-0.8653 2.2112,-1.0353 2.22,-1.2011 2.22,-1.3623 2.2112,-1.518 2.1937,-1.6678 2.1676,-1.8109 2.1329,-1.9469 2.0897,-2.0753 2.0384,-2.1954 1.979,-2.307 1.9118,-2.4092 1.837,-2.5022 1.755,-2.5852 1.6661,-2.6579 1.5705,-2.7203 1.4688,-2.7718 1.3613,-2.8124 1.2485,-2.842 1.1306,-2.8603 1.0083,-2.8673 0.8821,-2.863 0.7524,-2.8475 0.6197,-2.8206 0.4845,-2.7826 0.3474,-2.7337 0.2091,-2.674 0.0697,-2.6037 -0.0697,-2.5231 -0.2091,-2.4326 -0.3474,-2.3325 -0.4845,-2.2232 -0.6197,-2.1051 -0.7524,-1.9787 -0.8821,-1.8444 -1.0083,-1.703 -1.1306,-1.5548 -1.2485,-1.4004 -1.3613,-1.2405 -1.4688,-1.0758 -0.7883,-0.4836 z"
       stroke="#3584e4"
       stroke-width="1"
       style="fill:#ffffff;stroke-width:5.73898421;stroke-dasharray:none"
       profondeur="-11.428149057870101"
       id="path46" />
    <path
       d="M -141.4214,-81.6497 141.4214,81.6497"
       stroke="#ed333b"
       stroke-width="1"
       style="stroke-linecap:round;stroke-width:5.73898421;stroke-dasharray:none"
       profondeur="0.0"
       id="path47" />
    <path
       d="M 58.9256,74.8455 129.6362,34.0207"
       stroke="#ed333b"
       stroke-width="1"
       style="stroke-linecap:round;stroke-width:5.73898421;stroke-dasharray:none"
       profondeur="0.0"
       id="path48" />
    <path
       d="m -95.6953,2.4853 -0.7883,-0.4836 -1.4688,-1.0758 -1.3613,-1.2405 -1.2485,-1.4004 -1.1306,-1.5548 -1.0083,-1.703 -0.8821,-1.8444 -0.7524,-1.9787 -0.6197,-2.1051 -0.4845,-2.2232 -0.3474,-2.3325 -0.2091,-2.4326 -0.0697,-2.5231 v 0 l 0.0697,-2.6037 0.2091,-2.674 0.3474,-2.7337 0.4845,-2.7826 0.6197,-2.8206 0.7524,-2.8475 0.8821,-2.863 1.0083,-2.8673 1.1306,-2.8603 1.2485,-2.842 1.3613,-2.8124 1.4688,-2.7718 1.5705,-2.7203 1.6661,-2.6579 1.755,-2.5852 1.837,-2.5022 1.9118,-2.4092 1.979,-2.307 2.0384,-2.1954 2.0897,-2.0753 2.1329,-1.9469 2.1676,-1.8109 2.1937,-1.6678 2.2112,-1.518 2.22,-1.3623 2.22,-1.2011 2.2112,-1.0353 2.1938,-0.8653 2.1675,-0.692 2.1329,-0.5159 2.0898,-0.3378 2.0384,-0.1583 1.979,0.0217 1.9118,0.2018 1.837,0.381 1.755,0.5586 1.666,0.7342 0.7823,0.4232 141.4213,81.6496 -0.7822,-0.4231 -1.6661,-0.7342 -1.755,-0.5587 -1.837,-0.3809 -1.9118,-0.2018 -1.979,-0.0218 -2.0384,0.1584 -2.0897,0.3377 -2.1329,0.5159 -2.1676,0.692 -2.1937,0.8654 -2.2112,1.0353 -2.22,1.2011 -2.22,1.3623 -2.2112,1.518 -2.1938,1.6677 -2.1675,1.8109 -2.1329,1.947 -2.0898,2.0753 -2.0384,2.1954 -1.979,2.3069 -1.9118,2.4093 -1.837,2.5022 -1.755,2.5851 -1.666,2.658 -1.5706,2.7202 -1.4688,2.7718 -1.3613,2.8125 -1.2484,2.842 -1.1306,2.8603 -1.0084,2.8673 -0.8821,2.863 -0.7523,2.8474 -0.6197,2.8206 -0.4845,2.7827 -0.3475,2.7337 -0.209,2.674 -0.0698,2.6036 v 0 l 0.0698,2.5232 0.209,2.4326 0.3475,2.3325 0.4845,2.2232 0.6197,2.1051 0.7523,1.9786 0.8821,1.8445 1.0084,1.703 1.1306,1.5547 1.2484,1.4005 1.3613,1.2405 1.4688,1.0758 0.7883,0.4835 z"
       stroke="#3584e4"
       stroke-width="1"
       style="fill:#ffffff;stroke-width:5.73898421;stroke-dasharray:none"
       profondeur="11.428149057870122"
       id="path49" />
  </g>
  <ellipse
     style="fill:none;stroke:#000000;stroke-width:0.447074;stroke-dasharray:0.447074, 0.894148;stroke-dashoffset:0;stroke-opacity:1"
     id="path73-9"
     cx="88.290169"
     cy="148.79251"
     rx="79.987915"
     ry="110.9493" />
</svg>
