<?xml version="1.0" encoding="UTF-8" standalone="no"?>
<!-- Created with Inkscape (http://www.inkscape.org/) -->

<svg
   width="297mm"
   height="210mm"
   viewBox="0 0 297 210"
   version="1.1"
   id="svg1"
   inkscape:version="1.3.2 (091e20e, 2023-11-25, custom)"
   sodipodi:docname="Schéma Cinématique.svg"
   xmlns:inkscape="http://www.inkscape.org/namespaces/inkscape"
   xmlns:sodipodi="http://sodipodi.sourceforge.net/DTD/sodipodi-0.dtd"
   xmlns="http://www.w3.org/2000/svg"
   xmlns:svg="http://www.w3.org/2000/svg">
  <sodipodi:namedview
     id="namedview1"
     pagecolor="#505050"
     bordercolor="#eeeeee"
     borderopacity="1"
     inkscape:showpageshadow="0"
     inkscape:pageopacity="0"
     inkscape:pagecheckerboard="0"
     inkscape:deskcolor="#505050"
     inkscape:document-units="mm"
     inkscape:zoom="4.0970528"
     inkscape:cx="530.86941"
     inkscape:cy="565.40643"
     inkscape:window-width="1920"
     inkscape:window-height="1009"
     inkscape:window-x="-8"
     inkscape:window-y="-8"
     inkscape:window-maximized="1"
     inkscape:current-layer="svg1" />
  <defs
     id="defs1">
    <linearGradient
       id="swatch50"
       inkscape:swatch="solid">
      <stop
         style="stop-color:#ff0000;stop-opacity:1;"
         offset="0"
         id="stop50" />
    </linearGradient>
  </defs>
  <g
     inkscape:label="Calque 1"
     inkscape:groupmode="layer"
     id="layer1" />
  <path
     style="fill:none;fill-rule:evenodd;stroke:#d51515;stroke-width:0.4;stroke-dasharray:0.4,0.8;stroke-dashoffset:0;stroke-opacity:1"
     d="m 138.91307,149.47624 c 10.7201,-1.93737 28.40143,-9.5963 28.40143,-9.5963"
     id="path1-0"
     sodipodi:nodetypes="cc" />
  <path
     style="fill:none;fill-rule:evenodd;stroke:#d51515;stroke-width:0.4;stroke-dasharray:0.4,0.8;stroke-dashoffset:0;stroke-opacity:1"
     d="m 161.83483,153.69788 c 5.2404,-0.47612 17.57901,-7.0391 17.57901,-7.0391"
     id="path1"
     sodipodi:nodetypes="cc" />
  <path
     style="fill:none;fill-rule:evenodd;stroke:#d51515;stroke-width:0.4;stroke-dasharray:0.4, 0.8;stroke-dashoffset:0;stroke-opacity:1"
     d="m 148.86532,156.71956 c 16.16512,-5.57104 26.28739,-10.857 26.28739,-10.857"
     id="path2"
     sodipodi:nodetypes="cc" />
  <ellipse
     style="fill:none;fill-opacity:1;fill-rule:evenodd;stroke:#e66100;stroke-width:0.400025;stroke-dasharray:0.40002501, 1.20007503;stroke-dashoffset:0;stroke-opacity:1"
     id="ellipse57"
     cx="109.08649"
     cy="200.9899"
     rx="3.8793979"
     ry="8.7587929"
     transform="matrix(0.96118133,-0.27591747,0.26066914,0.96542819,0,0)" />
  <g
     credits="Auteur : Raphaël ALLAIS - Éduscol-STI"
     id="g43"
     transform="matrix(0.03084161,-0.03135978,0.02808623,0.03261359,163.92161,162.1338)"
     style="stroke-width:9.20908;stroke-dasharray:none">
    <g
       id="g38"
       style="stroke-width:9.20908;stroke-dasharray:none" />
    <path
       d="m -141.4214,-40.8248 70.7107,-40.8249"
       stroke="#000000"
       stroke-width="1"
       style="stroke-width:9.20908;stroke-linecap:round;stroke-dasharray:none"
       profondeur="-86.60254037844388"
       id="path38" />
    <path
       d="m -45.726,-84.1349 0.7883,0.4835 1.4688,1.0758 1.3613,1.2405 1.2484,1.4005 1.1306,1.5547 1.0084,1.703 0.8821,1.8445 0.7523,1.9786 0.6197,2.1051 0.4845,2.2232 0.3475,2.3325 0.209,2.4326 0.0698,2.5232 -0.0698,2.6036 -0.209,2.674 -0.3475,2.7337 -0.4845,2.7827 -0.6197,2.8206 -0.7523,2.8474 -0.8821,2.863 -1.0084,2.8673 -1.1306,2.8603 -1.2484,2.842 -1.3613,2.8125 -1.4688,2.7718 -1.5706,2.7202 -1.666,2.658 -1.755,2.5851 -1.837,2.5022 -1.9118,2.4093 -1.979,2.3069 -2.0384,2.1954 -2.0898,2.0753 -2.1329,1.947 -2.1675,1.8109 -2.1938,1.6677 -2.2112,1.518 -2.22,1.3623 -2.22,1.2011 -2.2112,1.0353 -2.1937,0.8654 -2.1676,0.692 -2.1329,0.5159 -2.0897,0.3377 -2.0384,0.1584 -1.979,-0.0218 -1.9118,-0.2018 -1.837,-0.3809 -1.755,-0.5587 -1.6661,-0.7342 -0.7822,-0.4231 141.4213,81.6496 0.7823,0.4232 1.666,0.7342 1.755,0.5586 1.837,0.381 1.9118,0.2018 1.979,0.0217 2.0384,-0.1583 2.0898,-0.3378 2.1329,-0.5159 2.1675,-0.692 2.1938,-0.8653 2.2112,-1.0353 2.22,-1.2011 2.22,-1.3623 2.2112,-1.518 2.1937,-1.6678 2.1676,-1.8109 2.1329,-1.9469 2.0897,-2.0753 2.0384,-2.1954 1.979,-2.307 1.9118,-2.4092 1.837,-2.5022 1.755,-2.5852 1.6661,-2.6579 1.5705,-2.7203 1.4688,-2.7718 1.3613,-2.8124 1.2485,-2.842 1.1306,-2.8603 1.0083,-2.8673 0.8821,-2.863 0.7524,-2.8475 0.6197,-2.8206 0.4845,-2.7826 0.3474,-2.7337 0.2091,-2.674 0.0697,-2.6037 -0.0697,-2.5231 -0.2091,-2.4326 -0.3474,-2.3325 -0.4845,-2.2232 -0.6197,-2.1051 -0.7524,-1.9787 -0.8821,-1.8444 -1.0083,-1.703 -1.1306,-1.5548 -1.2485,-1.4004 -1.3613,-1.2405 -1.4688,-1.0758 -0.7883,-0.4836 z"
       stroke="#e66100"
       stroke-width="1"
       style="fill:#ffffff;stroke-width:9.20908;stroke-dasharray:none"
       profondeur="-11.428149057870101"
       id="path39" />
    <path
       d="M -141.4214,-81.6497 141.4214,81.6497"
       stroke="#000000"
       stroke-width="1"
       style="stroke-width:9.20908;stroke-linecap:round;stroke-dasharray:none"
       profondeur="0.0"
       id="path40" />
    <path
       d="M 58.9256,74.8455 129.6362,34.0207"
       stroke="#000000"
       stroke-width="1"
       style="stroke-width:9.20908;stroke-linecap:round;stroke-dasharray:none"
       profondeur="0.0"
       id="path41" />
    <path
       d="m -95.6953,2.4853 -0.7883,-0.4836 -1.4688,-1.0758 -1.3613,-1.2405 -1.2485,-1.4004 -1.1306,-1.5548 -1.0083,-1.703 -0.8821,-1.8444 -0.7524,-1.9787 -0.6197,-2.1051 -0.4845,-2.2232 -0.3474,-2.3325 -0.2091,-2.4326 -0.0697,-2.5231 v 0 l 0.0697,-2.6037 0.2091,-2.674 0.3474,-2.7337 0.4845,-2.7826 0.6197,-2.8206 0.7524,-2.8475 0.8821,-2.863 1.0083,-2.8673 1.1306,-2.8603 1.2485,-2.842 1.3613,-2.8124 1.4688,-2.7718 1.5705,-2.7203 1.6661,-2.6579 1.755,-2.5852 1.837,-2.5022 1.9118,-2.4092 1.979,-2.307 2.0384,-2.1954 2.0897,-2.0753 2.1329,-1.9469 2.1676,-1.8109 2.1937,-1.6678 2.2112,-1.518 2.22,-1.3623 2.22,-1.2011 2.2112,-1.0353 2.1938,-0.8653 2.1675,-0.692 2.1329,-0.5159 2.0898,-0.3378 2.0384,-0.1583 1.979,0.0217 1.9118,0.2018 1.837,0.381 1.755,0.5586 1.666,0.7342 0.7823,0.4232 141.4213,81.6496 -0.7822,-0.4231 -1.6661,-0.7342 -1.755,-0.5587 -1.837,-0.3809 -1.9118,-0.2018 -1.979,-0.0218 -2.0384,0.1584 -2.0897,0.3377 -2.1329,0.5159 -2.1676,0.692 -2.1937,0.8654 -2.2112,1.0353 -2.22,1.2011 -2.22,1.3623 -2.2112,1.518 -2.1938,1.6677 -2.1675,1.8109 -2.1329,1.947 -2.0898,2.0753 -2.0384,2.1954 -1.979,2.3069 -1.9118,2.4093 -1.837,2.5022 -1.755,2.5851 -1.666,2.658 -1.5706,2.7202 -1.4688,2.7718 -1.3613,2.8125 -1.2484,2.842 -1.1306,2.8603 -1.0084,2.8673 -0.8821,2.863 -0.7523,2.8474 -0.6197,2.8206 -0.4845,2.7827 -0.3475,2.7337 -0.209,2.674 -0.0698,2.6036 v 0 l 0.0698,2.5232 0.209,2.4326 0.3475,2.3325 0.4845,2.2232 0.6197,2.1051 0.7523,1.9786 0.8821,1.8445 1.0084,1.703 1.1306,1.5547 1.2484,1.4005 1.3613,1.2405 1.4688,1.0758 0.7883,0.4835 z"
       stroke="#e66100"
       stroke-width="1"
       style="fill:#ffffff;stroke-width:9.20908;stroke-dasharray:none"
       profondeur="11.428149057870122"
       id="path42" />
  </g>
  <ellipse
     style="fill:none;fill-opacity:1;fill-rule:evenodd;stroke:#3aeff7;stroke-width:0.5000829;stroke-dasharray:0.5000829,1.50024876;stroke-dashoffset:0;stroke-opacity:1"
     id="path50"
     cx="160.461"
     cy="126.84901"
     rx="7.0513849"
     ry="14.592604"
     transform="matrix(0.99606138,0.0886664,-0.06299163,0.99801406,0,0)" />
  <g
     credits="Auteur : Raphaël ALLAIS - Éduscol-STI"
     id="g49"
     transform="matrix(0.06866502,-0.01756187,0.01611995,0.0748071,163.66224,144.35861)">
    <g
       id="g44" />
    <path
       d="m -141.4214,-40.8248 70.7107,-40.8249"
       stroke="#000000"
       stroke-width="1"
       style="stroke-linecap:round;stroke-width:5.43339483;stroke-dasharray:none"
       profondeur="-86.60254037844388"
       id="path44" />
    <path
       d="m -45.726,-84.1349 0.7883,0.4835 1.4688,1.0758 1.3613,1.2405 1.2484,1.4005 1.1306,1.5547 1.0084,1.703 0.8821,1.8445 0.7523,1.9786 0.6197,2.1051 0.4845,2.2232 0.3475,2.3325 0.209,2.4326 0.0698,2.5232 -0.0698,2.6036 -0.209,2.674 -0.3475,2.7337 -0.4845,2.7827 -0.6197,2.8206 -0.7523,2.8474 -0.8821,2.863 -1.0084,2.8673 -1.1306,2.8603 -1.2484,2.842 -1.3613,2.8125 -1.4688,2.7718 -1.5706,2.7202 -1.666,2.658 -1.755,2.5851 -1.837,2.5022 -1.9118,2.4093 -1.979,2.3069 -2.0384,2.1954 -2.0898,2.0753 -2.1329,1.947 -2.1675,1.8109 -2.1938,1.6677 -2.2112,1.518 -2.22,1.3623 -2.22,1.2011 -2.2112,1.0353 -2.1937,0.8654 -2.1676,0.692 -2.1329,0.5159 -2.0897,0.3377 -2.0384,0.1584 -1.979,-0.0218 -1.9118,-0.2018 -1.837,-0.3809 -1.755,-0.5587 -1.6661,-0.7342 -0.7822,-0.4231 141.4213,81.6496 0.7823,0.4232 1.666,0.7342 1.755,0.5586 1.837,0.381 1.9118,0.2018 1.979,0.0217 2.0384,-0.1583 2.0898,-0.3378 2.1329,-0.5159 2.1675,-0.692 2.1938,-0.8653 2.2112,-1.0353 2.22,-1.2011 2.22,-1.3623 2.2112,-1.518 2.1937,-1.6678 2.1676,-1.8109 2.1329,-1.9469 2.0897,-2.0753 2.0384,-2.1954 1.979,-2.307 1.9118,-2.4092 1.837,-2.5022 1.755,-2.5852 1.6661,-2.6579 1.5705,-2.7203 1.4688,-2.7718 1.3613,-2.8124 1.2485,-2.842 1.1306,-2.8603 1.0083,-2.8673 0.8821,-2.863 0.7524,-2.8475 0.6197,-2.8206 0.4845,-2.7826 0.3474,-2.7337 0.2091,-2.674 0.0697,-2.6037 -0.0697,-2.5231 -0.2091,-2.4326 -0.3474,-2.3325 -0.4845,-2.2232 -0.6197,-2.1051 -0.7524,-1.9787 -0.8821,-1.8444 -1.0083,-1.703 -1.1306,-1.5548 -1.2485,-1.4004 -1.3613,-1.2405 -1.4688,-1.0758 -0.7883,-0.4836 z"
       stroke="#33d17a"
       stroke-width="1"
       style="fill:#ffffff;stroke-width:5.43339483;stroke-dasharray:none"
       profondeur="-11.428149057870101"
       id="path45" />
    <path
       d="M -141.4214,-81.6497 141.4214,81.6497"
       stroke="#000000"
       stroke-width="1"
       style="stroke-linecap:round;stroke-width:5.43339483;stroke-dasharray:none"
       profondeur="0.0"
       id="path46" />
    <path
       d="M 58.9256,74.8455 129.6362,34.0207"
       stroke="#000000"
       stroke-width="1"
       style="stroke-linecap:round;stroke-width:5.43339483;stroke-dasharray:none"
       profondeur="0.0"
       id="path47" />
    <path
       d="m -95.6953,2.4853 -0.7883,-0.4836 -1.4688,-1.0758 -1.3613,-1.2405 -1.2485,-1.4004 -1.1306,-1.5548 -1.0083,-1.703 -0.8821,-1.8444 -0.7524,-1.9787 -0.6197,-2.1051 -0.4845,-2.2232 -0.3474,-2.3325 -0.2091,-2.4326 -0.0697,-2.5231 v 0 l 0.0697,-2.6037 0.2091,-2.674 0.3474,-2.7337 0.4845,-2.7826 0.6197,-2.8206 0.7524,-2.8475 0.8821,-2.863 1.0083,-2.8673 1.1306,-2.8603 1.2485,-2.842 1.3613,-2.8124 1.4688,-2.7718 1.5705,-2.7203 1.6661,-2.6579 1.755,-2.5852 1.837,-2.5022 1.9118,-2.4092 1.979,-2.307 2.0384,-2.1954 2.0897,-2.0753 2.1329,-1.9469 2.1676,-1.8109 2.1937,-1.6678 2.2112,-1.518 2.22,-1.3623 2.22,-1.2011 2.2112,-1.0353 2.1938,-0.8653 2.1675,-0.692 2.1329,-0.5159 2.0898,-0.3378 2.0384,-0.1583 1.979,0.0217 1.9118,0.2018 1.837,0.381 1.755,0.5586 1.666,0.7342 0.7823,0.4232 141.4213,81.6496 -0.7822,-0.4231 -1.6661,-0.7342 -1.755,-0.5587 -1.837,-0.3809 -1.9118,-0.2018 -1.979,-0.0218 -2.0384,0.1584 -2.0897,0.3377 -2.1329,0.5159 -2.1676,0.692 -2.1937,0.8654 -2.2112,1.0353 -2.22,1.2011 -2.22,1.3623 -2.2112,1.518 -2.1938,1.6677 -2.1675,1.8109 -2.1329,1.947 -2.0898,2.0753 -2.0384,2.1954 -1.979,2.3069 -1.9118,2.4093 -1.837,2.5022 -1.755,2.5851 -1.666,2.658 -1.5706,2.7202 -1.4688,2.7718 -1.3613,2.8125 -1.2484,2.842 -1.1306,2.8603 -1.0084,2.8673 -0.8821,2.863 -0.7523,2.8474 -0.6197,2.8206 -0.4845,2.7827 -0.3475,2.7337 -0.209,2.674 -0.0698,2.6036 v 0 l 0.0698,2.5232 0.209,2.4326 0.3475,2.3325 0.4845,2.2232 0.6197,2.1051 0.7523,1.9786 0.8821,1.8445 1.0084,1.703 1.1306,1.5547 1.2484,1.4005 1.3613,1.2405 1.4688,1.0758 0.7883,0.4835 z"
       stroke="#33d17a"
       stroke-width="1"
       style="fill:#ffffff;stroke-width:5.43339;stroke-dasharray:none"
       profondeur="11.428149057870122"
       id="path48" />
  </g>
  <g
     credits="Auteur : Raphaël ALLAIS - Éduscol-STI"
     id="g37"
     transform="matrix(0.03804346,0.01643875,-0.01536055,0.0415508,132.13317,151.60073)"
     style="stroke-width:9.34221;stroke-dasharray:none">
    <g
       id="g32"
       style="stroke-width:9.34221;stroke-dasharray:none" />
    <path
       d="M -37.429216,18.353135 30.296416,-27.252942"
       stroke="#000000"
       stroke-width="1"
       style="stroke-width:9.34221;stroke-linecap:round;stroke-dasharray:none"
       profondeur="-86.60254037844388"
       id="path32" />
    <path
       d="m 55.050126,-31.455958 0.819779,0.427962 1.539522,0.971901 1.44364,1.143626 1.342048,1.311034 1.235168,1.472993 1.12349,1.629371 1.007253,1.779248 0.887015,1.921983 0.763458,2.057329 0.636728,2.184477 0.507595,2.302967 0.376331,2.412385 0.243714,2.5123717 0.109993,2.602212 -0.02402,2.682047 -0.15807,2.7511611 -0.291362,2.8094962 -0.423625,2.8566333 -0.554061,2.8925179 -0.682474,2.9170358 -0.808178,2.930039 -0.930569,2.931487 -1.04935,2.921357 -1.164018,2.899717 -1.274069,2.866531 -1.379186,2.822076 -1.47865,2.766607 -1.572468,2.700021 -1.659992,2.622976 -1.741023,2.535457 -1.815128,2.437938 -1.882078,2.330802 -1.941642,2.214534 -1.993491,2.089513 -2.037398,1.956124 -2.073516,1.815081 -2.101201,1.666937 -2.120723,1.512216 -2.131844,1.351399 -2.134504,1.185388 -2.128767,1.014685 -2.114693,0.839898 -2.092225,0.661823 -2.061422,0.481067 -2.022615,0.298656 -1.975789,0.114786 -1.921167,-0.06942 -1.858901,-0.253254 -1.789364,-0.436289 -1.712784,-0.617503 -0.809527,-0.368126 146.717464,71.698154 0.80964,0.36822 1.71268,0.61751 1.78936,0.43619 1.85891,0.25335 1.92116,0.0694 1.97579,-0.11488 2.02262,-0.29856 2.06151,-0.48117 2.09223,-0.66183 2.11459,-0.83989 2.12887,-1.01459 2.13451,-1.18539 2.13184,-1.3514 2.12073,-1.51221 2.1012,-1.66694 2.07341,-1.81517 2.03749,-1.95613 1.9935,-2.08942 1.94154,-2.21452 1.88208,-2.33081 1.81512,-2.43803 1.74103,-2.53536 1.66,-2.62298 1.57246,-2.70012 1.47875,-2.766517 1.37908,-2.82217 1.27407,-2.86653 1.16403,-2.899617 1.04945,-2.921365 0.93056,-2.931486 0.80808,-2.930033 0.68248,-2.917035 0.55415,-2.892625 0.42363,-2.856633 0.29136,-2.809396 0.15797,-2.751154 0.0241,-2.682055 -0.1101,-2.602305 -0.2436,-2.512279 -0.37644,-2.412377 -0.50749,-2.302975 -0.63673,-2.184476 -0.76346,-2.05733 -0.88712,-1.922076 -1.00724,-1.779147 -1.12339,-1.629378 -1.23518,-1.473093 -1.34214,-1.310927 -1.44364,-1.143626 -1.53952,-0.971902 -0.81979,-0.428061 z"
       stroke="#e01b24"
       stroke-width="1"
       style="fill:#ffffff;stroke-width:9.34221;stroke-dasharray:none;stroke:#e01bb2;stroke-opacity:1"
       profondeur="-11.428149057870101"
       id="path33" />
    <path
       d="M -40.245796,-22.374489 253.18936,121.022"
       stroke="#000000"
       stroke-width="1"
       style="stroke-width:9.34221;stroke-linecap:round;stroke-dasharray:none"
       profondeur="0.0"
       id="path34" />
    <path
       d="M 170.42069,119.92554 238.14623,74.319564"
       stroke="#000000"
       stroke-width="1"
       style="stroke-width:9.34221;stroke-linecap:round;stroke-dasharray:none"
       profondeur="0.0"
       id="path35" />
    <path
       d="m 11.175968,58.405315 -0.819786,-0.428062 -1.5395213,-0.971902 -1.443641,-1.143625 -1.342141,-1.310927 -1.235174,-1.473094 -1.123391,-1.629377 -1.007246,-1.779148 -0.887121,-1.922076 -0.763458,-2.05733 -0.63672802,-2.184476 -0.507496,-2.302974 -0.376431,-2.412378 -0.243607,-2.512279 v 0 l -0.110099,-2.602305 0.02412,-2.682054 0.15797,-2.751154 0.291369,-2.809397 0.423625,-2.856633 0.554154,-2.892624 0.68247502,-2.917036 0.808077,-2.930032 0.930569,-2.931487 1.049451,-2.9213644 1.164024,-2.8996172 1.274069,-2.8665307 1.379079,-2.82216956 1.478757,-2.76651444 1.5724613,-2.70012 1.659992,-2.622976 1.74103,-2.5353577 1.81512,-2.438037 1.882079,-2.330802 1.941542,-2.214527 1.993498,-2.089413 2.037498,-1.956132 2.073408,-1.815173 2.101202,-1.666937 2.120722,-1.512216 2.131845,-1.3514 2.134503,-1.185387 2.128875,-1.014593 2.114593,-0.83989 2.092225,-0.661823 2.061515,-0.481174 2.022621,-0.298556 1.975782,-0.114886 1.921168,0.06942 1.858908,0.253355 1.789357,0.436188 1.712685,0.617511 0.809633,0.368219 146.717461,71.698149 -0.80953,-0.368127 -1.71278,-0.617503 -1.78936,-0.436288 -1.8589,-0.253255 -1.92117,-0.06942 -1.97579,0.114787 -2.02261,0.298655 -2.06143,0.481067 -2.09222,0.661824 -2.11469,0.839897 -2.12877,1.014685 -2.13451,1.185388 -2.13184,1.3514 -2.12072,1.512215 -2.10121,1.666938 -2.07351,1.81508 -2.0374,1.956125 -1.99349,2.089513 -1.94164,2.214534 -1.88208,2.330801 -1.81513,2.437938 -1.74102,2.535458 -1.65999,2.622975 -1.57247,2.700021 -1.47865,2.766607 -1.37919,2.822077 -1.27407,2.86653 -1.16401,2.899717 -1.04935,2.921358 -0.93057,2.931486 -0.80818,2.930039 -0.68247,2.917036 -0.55407,2.892518 -0.42362,2.856633 -0.29136,2.809496 -0.15807,2.751164 -0.024,2.68205 0.10999,2.60221 v 0 l 0.24371,2.51237 0.37633,2.41239 0.5076,2.30297 0.63673,2.18447 0.76345,2.05733 0.88701,1.92198 1.00726,1.77925 1.12349,1.62937 1.23516,1.473 1.34205,1.31103 1.44364,1.14363 1.53953,0.9719 0.81977,0.42796 z"
       stroke="#e01b24"
       stroke-width="1"
       style="fill:#ffffff;stroke-width:9.34221;stroke-dasharray:none;stroke:#e01bb2;stroke-opacity:1"
       profondeur="11.428149057870122"
       id="path36" />
  </g>
  <ellipse
     style="fill:none;fill-opacity:1;fill-rule:evenodd;stroke:#e01bb2;stroke-width:0.400057;stroke-dasharray:0.40005699,1.20017096;stroke-dashoffset:0;stroke-opacity:1"
     id="ellipse58"
     cx="202.06046"
     cy="-60.315449"
     rx="3.7123554"
     ry="8.2881193"
     transform="matrix(0.84385026,0.53657873,0.51624188,-0.85644283,0,0)" />
  <g
     id="g79"
     transform="matrix(0.64775938,0,0,0.70570134,48.608882,48.933204)"
     style="stroke-width:0.59161975;stroke-dasharray:none">
    <path
       style="fill:none;fill-opacity:1;stroke:#f90808;stroke-width:0.59161975;stroke-dasharray:none;stroke-dashoffset:0;stroke-opacity:1"
       d="m 154.83517,152.85451 -4.85593,33.14703"
       id="path63"
       sodipodi:nodetypes="cc" />
    <path
       style="fill:none;fill-opacity:1;fill-rule:evenodd;stroke:#f90808;stroke-width:0.59161975;stroke-dasharray:none;stroke-dashoffset:0;stroke-opacity:1"
       d="m 174.81931,148.5029 c -1.82656,0.18266 -20.29164,4.38086 -20.29164,4.38086"
       id="path78"
       sodipodi:nodetypes="cc" />
    <path
       style="fill:none;fill-opacity:1;fill-rule:evenodd;stroke:#f90808;stroke-width:0.59161975;stroke-dasharray:none;stroke-dashoffset:0;stroke-opacity:1"
       d="m 139.46648,142.3806 15.42651,10.68582"
       id="path79"
       sodipodi:nodetypes="cc" />
  </g>
  <g
     credits="Auteur : Raphaël ALLAIS - Éduscol-STI"
     id="g132"
     transform="matrix(0.08217617,-0.03228823,0.03228823,0.08217617,153.28458,84.851584)"
     style="stroke-width:4.53042891;stroke-dasharray:none">
    <path
       d="M -16.9694,-77.2728 124.4519,4.3769 93.516,84.1096 -47.9054,2.46 Z"
       stroke="#f6d32d"
       stroke-width="1"
       style="fill:#ffffff;stroke-linecap:round;stroke-linejoin:round;stroke-width:4.53042891;stroke-dasharray:none"
       profondeur="-49292.195912175805"
       id="path123" />
    <path
       d="M -47.9054,2.46 93.516,84.1096 16.9694,77.2728 -124.4519,-4.3769 Z"
       stroke="#f6d32d"
       stroke-width="1"
       style="fill:#ffffff;stroke-linecap:round;stroke-linejoin:round;stroke-width:4.53042891;stroke-dasharray:none"
       profondeur="-9245.462861476937"
       id="path124" />
    <path
       d="M -50.4936,-7.1993 -90.9278,-74.4504"
       stroke="#000000"
       stroke-width="1"
       style="fill:#ffffff;stroke-linecap:round;stroke-linejoin:round;stroke-width:4.53042891;stroke-dasharray:none"
       profondeur="-57.73502691896258"
       id="path125" />
    <path
       d="m -114.7927,-12.9423 88.164,-55.7651"
       stroke="#000000"
       stroke-width="1"
       style="fill:#ffffff;stroke-linecap:round;stroke-linejoin:round;stroke-width:4.53042891;stroke-dasharray:none"
       profondeur="-57.73502691896258"
       id="path126" />
    <path
       d="M -141.4214,-81.6497 141.4214,81.6497"
       stroke="#000000"
       stroke-width="1"
       style="stroke-linecap:round;stroke-width:4.53042891;stroke-dasharray:none"
       profondeur="0.0"
       id="path127" />
    <path
       d="m 26.6287,68.7074 88.164,-55.7651"
       stroke="#000000"
       stroke-width="1"
       style="fill:#ffffff;stroke-linecap:round;stroke-linejoin:round;stroke-width:4.53042891;stroke-dasharray:none"
       profondeur="57.73502691896258"
       id="path128" />
    <path
       d="M 90.9278,74.4504 50.4936,7.1993"
       stroke="#000000"
       stroke-width="1"
       style="fill:#ffffff;stroke-linecap:round;stroke-linejoin:round;stroke-width:4.53042891;stroke-dasharray:none"
       profondeur="57.73502691896258"
       id="path129" />
    <path
       d="M -16.9694,-77.2728 124.4519,4.3769 47.9054,-2.46 -93.516,-84.1096 Z"
       stroke="#f6d32d"
       stroke-width="1"
       style="fill:#ffffff;stroke-linecap:round;stroke-linejoin:round;stroke-width:4.53042891;stroke-dasharray:none"
       profondeur="9245.462861476937"
       id="path130" />
    <path
       d="M -93.516,-84.1096 47.9054,-2.46 16.9694,77.2728 -124.4519,-4.3769 Z"
       stroke="#f6d32d"
       stroke-width="1"
       style="fill:#ffffff;stroke-linecap:round;stroke-linejoin:round;stroke-width:4.53042891;stroke-dasharray:none"
       profondeur="49292.195912175805"
       id="path131" />
  </g>
  <ellipse
     style="fill:none;fill-opacity:1;fill-rule:evenodd;stroke:#fe0805;stroke-width:0.40009065;stroke-dasharray:none;stroke-dashoffset:0;stroke-opacity:1"
     id="path50-1"
     cx="157.90846"
     cy="89.707382"
     rx="66.693199"
     ry="89.929306"
     transform="matrix(0.99996544,0.0083141,-0.03840919,0.99926209,0,0)" />
  <path
     style="fill:none;fill-rule:evenodd;stroke:#000000;stroke-width:0.4;stroke-dasharray:none;stroke-dashoffset:0;stroke-opacity:1"
     d="m 167.49631,86.944651 c 18.44834,2.557196 29.22509,15.251839 29.22509,15.251839"
     id="path10" />
  <path
     style="fill:none;fill-rule:evenodd;stroke:#000000;stroke-width:0.4;stroke-dasharray:none;stroke-dashoffset:0;stroke-opacity:1"
     d="m 138.93554,82.688845 c -18.76196,-2.374507 -24.12373,2.538921 -24.12373,2.538921"
     id="path11"
     sodipodi:nodetypes="cc" />
  <path
     style="fill:none;fill-rule:evenodd;stroke:#000000;stroke-width:0.4;stroke-dasharray:none;stroke-dashoffset:0;stroke-opacity:1"
     d="M 174.29856,119.2773 196.5783,102.16388"
     id="path12" />
  <path
     style="fill:none;fill-rule:evenodd;stroke:#000000;stroke-width:0.4;stroke-dasharray:none;stroke-dashoffset:0;stroke-opacity:1"
     d="m 114.66914,85.239774 18.93603,25.243906"
     id="path13" />
  <path
     style="fill:none;fill-rule:evenodd;stroke:#000000;stroke-width:0.4;stroke-dasharray:none;stroke-dashoffset:0;stroke-opacity:1"
     d="m 170.6048,160.36935 4.12833,-12.36734 -0.3911,-28.5765 -40.66398,-8.81319 -0.20803,28.27197 -2.54213,11.11469"
     id="path19"
     sodipodi:nodetypes="cccccc" />
</svg>
